<?xml version="1.0" standalone="no"?>
<!DOCTYPE svg PUBLIC "-//W3C//DTD SVG 20010904//EN"
 "http://www.w3.org/TR/2001/REC-SVG-20010904/DTD/svg10.dtd">
<svg version="1.0" xmlns="http://www.w3.org/2000/svg"
 width="1024.000000pt" height="1024.000000pt" viewBox="0 0 1024.000000 1024.000000"
 preserveAspectRatio="xMidYMid meet">

<g transform="translate(0.000000,1024.000000) scale(0.100000,-0.100000)"
fill="#000000" stroke="none">
<path d="M0 6992 l0 -3248 59 4 c63 5 139 -14 124 -29 -6 -6 -49 -12 -96 -16
l-87 -6 0 -587 0 -587 56 -6 c31 -3 61 -10 67 -16 9 -9 13 -328 4 -337 -2 -3
-12 -2 -21 2 -14 5 -16 26 -16 150 0 123 -2 146 -16 151 -10 4 -26 -6 -44 -26
l-29 -31 -1 -925 0 -926 30 22 c16 13 30 28 30 34 0 18 587 26 1292 18 l608
-6 0 -49 0 -49 -980 3 -980 3 0 -267 0 -268 5120 0 5120 0 0 268 0 267 -1019
-3 -1018 -3 -6 48 c-3 26 -4 49 -2 51 6 6 1973 3 2008 -3 l37 -7 -2 1163 c-3
1147 -3 1164 -23 1167 -10 3 -102 1 -203 -3 l-183 -7 15 -23 c14 -21 10 -20
-33 8 -26 18 -57 37 -67 44 -15 9 35 12 239 12 l257 1 0 371 c0 349 -1 371
-17 364 -10 -3 -430 -9 -933 -12 -503 -3 -973 -6 -1045 -8 -71 -1 -188 -2
-258 -3 l-129 -2 30 -25 c16 -14 54 -36 83 -50 30 -14 48 -25 41 -25 -11 0
-11 -2 0 -13 7 -8 20 -16 28 -20 8 -3 -5 -6 -30 -6 -25 -1 -81 -4 -126 -7
l-81 -7 -6 29 c-3 16 -21 46 -40 66 -19 21 -32 40 -29 43 3 3 -11 5 -31 5 -61
0 -89 16 -85 48 l3 27 715 0 c393 0 984 -2 1313 -5 l597 -5 0 3248 0 3247
-5120 0 -5120 0 0 -3248z m5086 2761 c-3 -7 -12 -13 -21 -13 -12 0 -15 16 -15
88 0 54 5 93 12 100 7 7 14 59 17 124 5 101 6 92 9 -87 1 -110 0 -205 -2 -212z
m-423 159 c296 -2 307 -3 307 -21 0 -19 -7 -19 -222 -14 -123 3 -231 10 -240
15 -11 5 -25 5 -35 -1 -10 -5 -117 -10 -238 -12 -337 -6 -1115 3 -1121 13 -3
4 -35 9 -72 10 -232 8 933 15 1621 10z m2073 -17 c-16 -12 -66 -15 -270 -15
-138 0 -486 -2 -773 -5 l-523 -6 0 23 0 23 792 -3 c698 -2 791 -5 774 -17z
m-5357 -362 c1 -282 1 -283 -20 -283 -21 0 -21 0 -15 228 14 503 34 534 35 55z
m7442 -52 c4 -216 3 -226 -15 -229 -19 -4 -19 4 -13 289 4 162 8 301 8 309 5
49 17 -178 20 -369z m-7211 250 c15 -29 12 -33 -10 -14 -21 19 -26 33 -10 33
5 0 14 -9 20 -19z m3614 -80 c17 -16 27 -39 31 -70 3 -25 8 -63 10 -83 5 -32
2 -38 -14 -38 -27 0 -44 25 -37 55 11 42 -11 103 -42 119 -43 22 -89 28 -144
21 -66 -9 -98 -39 -98 -92 0 -21 -3 -55 -6 -75 -5 -31 -11 -38 -29 -38 -22 0
-23 2 -18 88 3 48 10 95 15 104 13 27 63 36 190 34 108 -2 120 -4 142 -25z
m-3440 -87 c8 -21 3 -26 -18 -18 -20 8 -21 34 -2 34 8 0 17 -7 20 -16z m114
-80 c28 -19 20 -34 -18 -34 -32 0 -45 13 -36 35 7 19 26 19 54 -1z m123 -64
c30 -16 24 -40 -10 -40 -33 0 -46 13 -37 35 6 18 20 19 47 5z m2947 -25 c-3
-3 -45 -25 -94 -49 -58 -28 -112 -64 -152 -101 -67 -62 -162 -195 -162 -226 0
-33 -20 -60 -55 -75 -67 -28 -69 -21 -23 68 105 202 250 345 383 378 35 9 111
12 103 5z m350 -25 c107 -47 223 -170 331 -349 52 -85 58 -101 42 -101 -20 0
-150 73 -145 82 3 5 15 6 26 2 18 -5 17 -1 -11 53 -62 116 -191 243 -296 292
-120 55 -116 52 -51 46 33 -3 79 -14 104 -25z m-3158 -16 c55 -22 54 -46 -2
-42 -39 3 -43 6 -46 31 -4 32 -4 32 48 11z m178 -66 c20 -20 14 -28 -22 -28
-36 0 -52 12 -41 30 9 14 48 13 63 -2z m-1762 -35 c-11 -11 -17 4 -9 23 7 18
8 18 11 1 2 -10 1 -21 -2 -24z m1944 -17 c0 -39 -61 -51 -80 -16 -16 29 -4 40
41 40 34 0 39 -3 39 -24z m-1921 -193 c1 -45 -2 -84 -6 -86 -5 -3 -8 56 -8
131 0 91 2 120 6 87 4 -27 8 -87 8 -132z m872 135 c45 -15 47 -19 51 -125 4
-70 3 -73 -19 -73 -22 0 -23 4 -23 70 0 77 -15 103 -66 116 -36 9 -146 -4
-161 -19 -7 -7 -15 -46 -19 -87 -6 -68 -15 -89 -36 -90 -13 0 -9 143 5 170 7
13 24 30 37 37 32 16 179 17 231 1z m1186 1 c19 -7 24 -12 15 -18 -19 -12 -62
-1 -62 15 0 17 10 17 47 3z m6281 -13 l32 -17 0 -85 c0 -64 -3 -85 -12 -82 -9
3 -14 30 -16 75 -4 96 -17 108 -122 108 -101 0 -110 -8 -110 -94 0 -66 -10
-91 -37 -91 -10 0 -13 23 -13 89 0 119 6 124 145 118 67 -3 111 -10 133 -21z
m-3801 -127 c15 -5 39 -21 53 -34 20 -19 49 -28 154 -45 227 -36 366 -80 366
-116 0 -8 8 -24 18 -34 22 -24 122 -197 122 -212 0 -6 23 -51 51 -100 27 -49
55 -102 60 -116 6 -15 31 -60 57 -100 46 -71 48 -72 87 -71 87 4 136 -1 130
-12 -4 -6 -23 -10 -44 -9 -76 4 -121 0 -121 -11 0 -6 18 -41 41 -79 41 -69 51
-75 87 -47 7 6 41 7 85 3 39 -4 83 -7 97 -7 14 0 44 -7 68 -15 23 -8 71 -14
105 -14 34 0 89 -4 123 -9 34 -5 152 -5 270 -1 206 8 223 7 224 -22 0 -5 -223
-8 -495 -8 -424 0 -495 -2 -495 -14 0 -8 4 -17 9 -21 6 -3 33 -46 62 -96 41
-71 55 -88 68 -82 27 13 438 15 560 3 64 -6 121 -12 128 -12 7 -1 10 -5 7 -10
-3 -4 13 -8 35 -8 23 0 41 -5 41 -11 0 -7 -65 -10 -207 -9 -450 4 -563 1 -563
-14 0 -10 -11 -12 -44 -9 -25 3 -139 2 -253 -3 l-208 -8 115 -8 c63 -4 179 -6
258 -4 l143 4 27 -28 c27 -28 27 -28 107 -18 83 10 679 7 689 -3 3 -3 9 -26
12 -51 l6 -45 -143 -6 c-79 -4 -246 -7 -371 -7 -214 0 -228 -1 -228 -18 0 -10
11 -29 25 -42 22 -20 27 -22 55 -10 23 10 88 10 292 4 145 -5 284 -8 309 -6
45 2 47 1 53 -29 3 -17 6 -42 6 -55 l0 -23 -317 -5 c-431 -8 -687 -19 -644
-28 18 -5 98 -8 178 -8 86 0 153 -4 165 -11 13 -7 102 -11 252 -10 280 0 333
-4 347 -31 9 -16 4 -25 -29 -57 -22 -21 -41 -43 -43 -49 -5 -12 -282 2 -382
19 -37 7 -70 10 -73 6 -14 -14 23 -42 56 -43 19 -1 115 -3 213 -5 157 -3 177
-5 177 -20 0 -20 -27 -33 -33 -16 -7 23 -378 12 -377 -11 0 -4 12 -20 27 -37
25 -28 28 -29 107 -27 44 2 100 5 124 8 40 6 42 5 42 -21 0 -63 -39 -90 -127
-87 -34 2 -64 -1 -66 -5 -3 -4 -81 -5 -174 -2 -92 4 -207 7 -254 8 l-86 1 -17
68 c-30 122 -137 246 -243 281 -90 30 -189 28 -263 -5 l-57 -26 -58 38 c-160
102 -384 154 -605 139 -169 -10 -267 -37 -428 -118 -100 -50 -104 -51 -145
-39 -100 29 -156 36 -205 24 -188 -43 -293 -141 -323 -302 l-12 -65 -86 -3
c-47 -1 -249 0 -448 4 l-363 6 0 65 0 64 220 -2 c217 -2 221 -1 245 21 13 13
22 26 20 30 -3 4 -35 11 -72 16 -57 6 -63 9 -38 15 27 6 25 7 -15 8 -32 0 -41
-2 -30 -9 8 -5 10 -10 4 -10 -5 0 -15 5 -21 11 -6 6 -63 9 -156 7 -115 -2
-148 0 -152 10 -3 8 -5 42 -5 76 l0 63 288 7 c158 5 330 11 382 15 l95 6 -65
9 c-36 5 -68 13 -72 19 -5 8 -103 12 -317 12 l-311 0 0 52 0 51 53 5 c28 3
147 3 262 0 284 -8 363 -5 392 14 21 14 76 15 466 12 243 -3 462 -2 487 1 96
12 -127 21 -532 21 -302 0 -408 3 -411 12 -2 8 -95 11 -360 9 l-357 -2 0 49
c0 28 3 52 8 54 4 3 180 8 392 12 l385 6 27 26 c23 22 33 25 70 20 29 -4 36
-3 23 3 -11 5 -32 9 -47 9 -18 1 -28 6 -28 16 0 14 -45 15 -416 9 l-417 -6 7
28 c4 16 9 30 11 32 2 2 33 9 69 15 49 8 118 8 268 0 204 -12 343 -6 429 17
23 6 47 9 54 6 8 -3 19 1 25 9 6 8 17 12 25 9 7 -3 16 3 20 15 3 12 22 42 41
66 19 25 34 52 34 59 0 12 -65 14 -428 13 -387 -1 -430 1 -452 16 -14 9 -20
17 -15 18 79 8 169 11 365 13 186 1 244 5 280 17 97 35 280 59 280 38 0 -7 18
6 40 30 48 51 53 81 13 81 -25 0 -26 1 -8 14 11 8 24 12 30 10 21 -9 33 11
148 241 89 180 135 269 168 322 21 35 40 71 44 82 3 11 20 24 38 30 54 17 239
59 292 66 29 4 63 17 82 31 17 13 38 24 45 24 8 0 18 4 24 9 21 20 166 27 211
10z m1833 -99 c0 -5 -7 -10 -15 -10 -8 0 -15 5 -15 10 0 6 7 10 15 10 8 0 15
-4 15 -10z m-5710 -13 c0 -2 -30 -19 -67 -38 -38 -19 -93 -59 -123 -89 -55
-54 -110 -150 -110 -190 0 -13 -14 -27 -41 -41 l-42 -21 6 30 c8 40 83 174
125 222 69 82 149 129 220 130 17 0 32 -1 32 -3z m326 -33 c64 -37 167 -154
214 -245 40 -77 46 -105 17 -80 -8 6 -32 17 -53 25 -21 8 -33 15 -26 15 23 2
12 38 -28 99 -52 78 -141 159 -207 189 -29 14 -53 27 -53 30 0 13 99 -11 136
-33z m7085 8 c-36 -15 -87 -47 -115 -73 -61 -56 -140 -182 -131 -209 4 -14 -2
-23 -24 -34 -17 -9 -40 -16 -51 -16 -28 0 -22 19 43 129 58 99 114 163 176
203 37 23 56 28 105 27 l61 0 -64 -27z m359 -4 c46 -28 104 -82 146 -139 32
-44 97 -180 89 -187 -11 -12 -49 34 -80 96 -42 84 -132 179 -212 224 -29 16
-53 32 -53 35 0 11 77 -10 110 -29z m-6090 -52 c18 -23 8 -59 -21 -75 -41 -23
-59 -9 -59 44 0 44 0 45 34 45 18 0 39 -7 46 -14z m169 0 c7 -8 11 -30 9 -48
-3 -32 -5 -33 -50 -36 -48 -3 -48 -3 -48 28 0 47 16 70 49 70 16 0 34 -6 40
-14z m157 -3 c17 -22 18 -55 2 -71 -7 -7 -29 -12 -50 -12 l-38 0 0 43 c0 24 3
47 7 50 13 14 66 7 79 -10z m318 1 c20 -19 21 -58 1 -74 -8 -6 -29 -13 -47
-13 -30 -2 -33 1 -36 31 -6 58 46 93 82 56z m-153 -21 c13 -34 2 -54 -35 -64
-39 -11 -56 -1 -56 31 0 48 9 60 46 60 28 0 36 -5 45 -27z m3219 0 c0 -5 -13
-15 -29 -25 -24 -13 -32 -27 -43 -80 -12 -52 -18 -64 -36 -66 -28 -4 -28 18
-2 76 32 70 59 102 86 102 13 0 24 -3 24 -7z m518 -54 c-3 -8 -7 -3 -11 10 -4
17 -3 21 5 13 5 -5 8 -16 6 -23z m-180 -11 c7 -7 12 -26 12 -43 0 -53 -43 -73
-82 -38 -24 21 -23 48 2 73 23 23 50 26 68 8z m-3870 -111 c4 -50 -12 -69 -57
-65 -34 3 -36 5 -39 41 -4 50 12 69 57 65 34 -3 36 -5 39 -41z m146 37 c20 -8
22 -67 3 -82 -7 -7 -29 -13 -48 -14 -33 -3 -34 -2 -37 36 -2 21 -1 44 2 52 5
14 52 19 80 8z m171 -24 c16 -50 -52 -91 -89 -54 -36 35 -12 74 45 74 29 0 39
-5 44 -20z m163 -21 c3 -35 1 -37 -32 -43 -44 -8 -76 7 -76 37 0 34 20 48 65
45 38 -3 40 -5 43 -39z m-645 -8 c-2 -41 -17 -52 -63 -49 -38 3 -47 20 -36 64
6 23 11 25 54 22 47 -3 47 -3 45 -37z m5932 -16 c25 -18 61 -29 157 -45 198
-33 223 -41 224 -70 1 -14 24 -68 53 -121 67 -126 163 -359 145 -352 -8 3 -14
8 -14 12 0 15 -70 31 -138 31 -55 0 -72 -3 -72 -14 0 -9 -16 -16 -47 -19 -115
-13 -236 -39 -251 -54 -9 -8 -40 -13 -88 -13 -48 0 -73 -4 -69 -10 3 -5 17
-10 31 -10 13 0 24 -4 24 -10 0 -6 -35 -11 -82 -12 l-83 -1 60 -7 60 -7 -57
-1 c-44 -2 -58 -6 -58 -17 0 -12 -13 -15 -60 -15 -33 0 -60 -4 -60 -10 0 -12
-40 -13 -67 -3 -16 6 -15 8 7 14 20 6 17 7 -17 8 -24 1 -43 -3 -43 -9 0 -5 -9
-10 -20 -10 -11 0 -20 -7 -20 -15 0 -8 -9 -15 -20 -15 -17 0 -20 -7 -20 -40 0
-31 4 -40 17 -40 9 0 13 -3 9 -7 -3 -4 -48 -8 -99 -8 -50 -1 -139 -3 -197 -5
-58 -1 -106 0 -108 4 -8 16 11 67 29 76 10 6 19 16 19 23 0 8 -4 7 -11 -3 -10
-13 -10 -13 -6 0 18 57 43 99 57 96 31 -8 75 -15 63 -10 -7 3 -13 14 -13 25 0
21 -20 25 -38 7 -29 -29 -13 8 139 319 60 123 109 229 109 237 0 19 6 21 190
51 84 14 164 32 176 40 61 39 145 44 189 10z m-7253 -54 c103 -16 192 -32 198
-36 5 -3 10 -14 10 -24 0 -9 11 -32 25 -51 13 -18 45 -83 71 -144 60 -145 175
-403 235 -531 16 -33 29 -70 29 -83 0 -12 5 -22 10 -22 6 0 10 -18 10 -40 0
-23 7 -55 16 -72 18 -35 6 -58 -19 -34 -13 14 -16 13 -21 -9 -5 -18 -15 -26
-41 -31 -27 -5 -36 -12 -41 -33 -10 -50 -23 -70 -49 -77 -33 -8 -55 11 -55 46
0 16 -3 35 -6 44 -8 20 -44 21 -44 2 0 -8 -3 -21 -6 -30 -4 -11 -1 -16 10 -16
21 0 20 -5 -6 -40 -27 -38 -18 -49 49 -57 28 -3 56 -8 61 -12 7 -4 8 -38 5
-91 -6 -80 -7 -83 -19 -55 l-13 30 -1 -28 c0 -15 -6 -30 -14 -33 -8 -3 -17
-16 -20 -29 -9 -35 -66 -44 -66 -10 0 25 -35 34 -149 36 -107 2 -112 3 -109
23 3 20 9 21 103 19 55 0 124 -4 154 -7 l54 -6 -7 41 c-9 55 -10 56 -54 69
-30 8 -39 7 -48 -5 -6 -8 -19 -15 -28 -15 -9 0 -16 -7 -16 -15 0 -28 -38 -16
-52 16 -13 29 -15 30 -60 24 l-48 -7 0 31 c0 17 -9 45 -19 63 -11 17 -18 34
-16 38 2 4 -3 44 -11 91 -13 78 -13 85 4 108 19 26 29 30 112 40 43 5 51 8 35
15 -20 8 -19 8 2 17 16 5 21 13 16 25 -5 12 -13 14 -37 8 -17 -4 -44 -7 -61
-7 -16 1 -100 3 -185 6 -85 2 -314 8 -507 12 l-353 8 -1 -179 c-2 -203 -3
-233 -14 -431 -16 -311 -30 -90 -30 489 l0 117 -47 3 -48 3 15 29 c21 41 20
43 -32 51 l-48 8 65 14 c36 8 125 15 199 16 87 1 136 6 138 13 2 7 -37 13
-119 18 -67 4 -124 8 -125 10 -10 9 191 475 243 563 13 23 24 49 24 57 0 24
32 34 165 51 66 9 138 21 160 27 65 17 147 24 195 15 25 -4 129 -20 232 -36z
m4942 -143 c9 -20 8 -19 81 -22 40 -1 55 4 77 23 l28 24 -10 -33 c-13 -45 -16
-47 -80 -55 -69 -8 -115 15 -147 71 -33 57 -27 120 15 168 16 17 17 14 23 -70
3 -49 9 -97 13 -106z m3370 169 c0 -9 -1 -110 -2 -224 -2 -139 -6 -203 -12
-193 -5 8 -10 108 -10 228 0 167 3 213 13 210 6 -3 12 -12 11 -21z m-2613 -54
c29 -77 -146 -207 -234 -174 -33 13 -56 48 -64 96 -4 26 -2 40 8 46 18 11 32
11 25 0 -8 -12 13 -72 33 -94 19 -23 72 -17 132 13 44 23 59 46 59 89 0 62 21
75 41 24z m-4057 -57 c0 -25 -3 -49 -7 -52 -4 -4 -26 -8 -49 -8 l-43 -1 -3 41
c-4 53 14 72 65 69 l38 -3 -1 -46z m131 40 c36 -13 40 -18 38 -46 0 -17 -7
-37 -13 -45 -15 -19 -84 -20 -98 -2 -13 16 -4 88 12 99 14 10 15 10 61 -6z
m-297 -12 c9 -2 12 -18 10 -46 -3 -41 -5 -44 -42 -53 -33 -8 -40 -6 -52 10
-17 23 -18 77 -3 92 11 11 48 9 87 -3z m-2771 0 c-3 -3 -12 -4 -19 -1 -8 3 -5
6 6 6 11 1 17 -2 13 -5z m2613 -32 c0 -46 -16 -70 -50 -72 -48 -4 -50 -2 -50
55 l0 55 50 0 50 0 0 -38z m644 32 c20 -8 20 -33 0 -62 -13 -19 -24 -22 -57
-20 -38 3 -42 6 -45 31 -2 16 2 35 9 43 12 14 64 19 93 8z m591 -84 c-16 -17
-31 -20 -107 -20 -57 0 -87 4 -83 10 3 6 44 10 91 10 49 0 84 4 84 10 0 6 7
10 17 10 14 0 14 -2 -2 -20z m-3685 -30 c22 -41 -26 -299 -51 -273 -4 4 -1 33
7 63 8 30 15 94 17 142 2 89 8 104 27 68z m5703 13 c-24 -2 -62 -2 -85 0 -24
2 -5 4 42 4 47 0 66 -2 43 -4z m-3082 -65 c6 -61 -13 -98 -50 -98 -35 0 -53
20 -54 62 -2 30 1 33 33 39 57 10 70 10 71 -3z m152 5 c2 -5 1 -30 -2 -58 l-6
-50 -42 -3 c-41 -3 -41 -3 -48 37 -11 65 -1 81 50 81 24 0 46 -3 48 -7z m164
-40 c-6 -52 -28 -76 -67 -71 -21 2 -27 11 -34 45 -13 63 -5 73 55 73 l52 0 -6
-47z m149 27 c19 0 18 -40 -2 -68 -10 -14 -26 -22 -44 -22 -25 0 -30 5 -36 35
-10 53 0 69 37 61 18 -3 38 -6 45 -6z m6264 -349 c0 -29 -15 -58 -23 -44 -11
17 -19 82 -11 94 10 17 34 -18 34 -50z m-9750 -12 c0 -66 -24 -62 -28 4 -2 37
0 47 12 47 12 0 16 -12 16 -51z m2973 24 c-7 -2 -19 -2 -25 0 -7 3 -2 5 12 5
14 0 19 -2 13 -5z m-1827 -328 c16 -14 34 -25 40 -25 5 0 23 -13 38 -29 l28
-30 -7 -148 c-10 -199 -28 -232 -127 -234 -67 -2 -78 4 -78 39 0 15 -3 37 -6
50 -7 23 -7 23 -21 2 -39 -56 -63 1 -63 153 0 89 3 114 17 129 15 17 15 18 -6
18 -14 0 -29 -12 -44 -37 -17 -30 -23 -34 -25 -19 -2 10 -1 33 2 52 11 58 90
94 143 66 20 -11 24 -9 39 13 20 31 33 31 70 0z m6819 -95 c-3 -5 -12 -10 -18
-10 -7 0 -6 4 3 10 19 12 23 12 15 0z m-6488 -63 c8 -27 13 -67 11 -90 -3 -40
-4 -42 -40 -45 -47 -4 -63 21 -54 87 10 71 26 103 49 99 14 -2 24 -17 34 -51z
m-795 -89 c3 -7 1 -51 -3 -98 -4 -47 -8 -95 -8 -108 -1 -13 -5 -20 -11 -17 -6
4 -10 55 -10 121 0 91 3 114 14 114 8 0 16 -6 18 -12z m7258 -99 c0 -32 -3
-39 -20 -39 -17 0 -20 -7 -20 -40 0 -22 5 -40 10 -40 6 0 10 -7 10 -15 0 -8
-3 -15 -7 -15 -5 0 -8 -30 -7 -66 l1 -66 -47 -20 c-29 -12 -52 -29 -59 -44
-14 -31 -14 -101 -1 -140 15 -46 18 -195 4 -183 -8 7 -14 6 -19 -1 -8 -12 -33
6 -126 93 -36 34 -82 76 -104 92 -79 62 -79 62 -56 98 12 21 17 42 14 60 -5
27 11 39 20 15 2 -7 2 0 0 15 -4 22 0 30 16 34 26 7 27 19 4 32 -17 10 -17 10
0 11 10 0 20 -7 23 -15 8 -20 24 -9 24 16 0 10 7 19 15 19 9 0 25 9 37 20 12
11 32 20 45 20 16 0 23 6 23 20 0 11 -4 20 -10 20 -14 0 -12 37 3 43 6 3 33 2
60 -1 30 -3 47 -1 47 6 0 6 -8 9 -17 8 -10 -2 -23 2 -30 9 -9 10 -6 14 18 19
17 3 29 12 29 21 0 8 9 15 20 15 11 0 20 5 20 10 0 6 9 10 21 10 14 0 19 5 16
13 -4 10 2 13 19 9 20 -4 24 -10 24 -43z m-7147 28 c3 -8 8 -39 12 -69 l7 -55
-38 -6 c-21 -4 -40 -4 -43 -2 -7 8 -14 113 -8 130 8 19 63 20 70 2z m2056
-967 c14 -49 24 -42 35 25 4 22 10 46 15 53 5 8 61 15 167 21 l159 10 -167 -5
-168 -4 0 78 c0 42 4 82 8 88 11 17 304 34 612 35 151 1 286 5 300 9 14 5 -87
8 -231 9 -141 1 -351 4 -467 8 l-212 6 0 68 0 68 53 5 c67 7 430 18 567 17 58
0 144 3 193 7 l87 8 0 -32 c0 -52 38 -158 70 -199 32 -40 32 -40 -13 -90 -10
-11 -25 -32 -33 -47 -8 -16 -18 -28 -22 -28 -4 0 -24 -28 -44 -63 -67 -113
-76 -297 -21 -419 26 -60 26 -60 8 -94 -10 -19 -101 -120 -201 -225 -154 -160
-189 -202 -220 -263 -32 -67 -37 -84 -41 -178 -7 -133 7 -182 92 -328 36 -61
65 -114 65 -118 0 -4 -22 -52 -50 -107 -41 -80 -53 -117 -62 -183 -10 -75 -14
-85 -39 -97 -30 -16 -88 -83 -111 -130 -9 -16 -18 -51 -22 -77 -6 -40 -4 -50
13 -65 27 -23 27 -26 -9 -67 -44 -50 -59 -93 -66 -201 l-7 -96 -26 3 c-21 2
-27 9 -29 35 -3 28 -13 39 -73 78 -38 24 -87 54 -109 65 -22 11 -55 34 -74 50
l-34 30 -566 0 -566 0 0 115 0 115 113 0 c61 0 256 5 432 10 176 5 450 10 609
10 l289 1 28 29 c26 26 29 35 30 102 5 325 5 1712 0 1743 -10 62 -32 71 -226
90 -93 9 -231 27 -305 40 -74 13 -214 29 -310 35 -168 12 -253 30 -141 30 42
0 54 4 57 18 6 21 48 42 86 42 15 0 28 5 28 11 0 7 10 9 24 7 19 -4 22 -1 19
13 -6 20 7 35 50 63 21 14 27 26 27 52 0 27 4 34 20 34 13 0 20 7 20 20 0 13
-7 20 -20 20 -13 0 -20 7 -20 20 0 13 7 20 20 20 13 0 20 7 20 20 0 14 7 20
24 20 13 0 27 7 30 16 5 14 9 14 34 -1 40 -24 67 -70 86 -146 45 -186 56 -163
56 114 0 132 4 238 10 247 6 10 10 11 10 3 0 -7 11 -13 24 -13 24 0 36 16 36
49 0 10 10 22 22 28 19 8 22 18 23 74 2 288 10 192 15 -196 5 -335 10 -483 19
-515z m2341 944 c195 -45 342 -124 483 -261 124 -121 287 -364 287 -428 0 -25
-20 -17 -32 13 -39 98 -79 164 -147 245 -137 162 -258 252 -429 321 -129 51
-197 65 -339 73 -188 9 -307 -16 -493 -105 -206 -100 -423 -331 -499 -534 -11
-30 -41 -38 -41 -12 0 75 246 417 357 498 65 47 252 139 344 170 41 14 111 30
155 35 98 12 268 5 354 -15z m3983 -23 c14 -1 18 -8 15 -33 l-3 -33 -75 0
c-62 0 -74 3 -71 15 2 8 5 26 6 40 1 14 3 25 4 26 0 0 25 -3 54 -7 28 -4 60
-8 70 -8z m-7813 -102 c0 -85 3 -114 15 -125 30 -30 8 -44 -39 -25 -22 8 -32
98 -21 199 6 52 10 62 26 62 18 0 19 -8 19 -111z m3725 60 c28 -6 11 -7 -54
-4 -52 3 -117 6 -145 7 -47 1 -45 2 19 7 72 7 112 4 180 -10z m-2960 -136 c7
-83 6 -93 -10 -99 -22 -9 -45 19 -45 55 0 41 34 162 41 148 4 -6 10 -54 14
-104z m2158 70 c15 -7 27 -17 27 -21 0 -10 -109 -97 -147 -116 -53 -27 -100
-74 -139 -138 -34 -56 -38 -59 -51 -43 -7 11 -13 25 -13 32 0 7 -5 13 -11 13
-7 0 -9 -11 -6 -30 4 -16 3 -32 -2 -34 -4 -3 -6 -40 -3 -82 5 -86 -4 -91 -40
-21 -30 60 -35 160 -13 245 16 56 27 75 70 119 43 42 65 55 131 77 84 27 142
27 197 -1z m1592 0 c60 -20 141 -97 172 -164 27 -57 46 -159 37 -196 -4 -15
-18 -53 -31 -83 -21 -48 -26 -53 -35 -37 -7 13 -7 31 2 61 6 23 10 58 7 77 -4
32 -4 31 -5 -8 -2 -38 -5 -42 -23 -40 -16 3 -28 19 -43 56 -31 77 -82 139
-163 195 -110 78 -163 119 -163 127 0 7 39 24 75 33 32 8 116 -2 170 -21z
m1330 -15 l30 -13 -50 -3 c-27 -2 -53 -8 -57 -14 -5 -9 -11 -8 -22 1 -14 12
-14 16 1 41 15 25 18 26 42 15 14 -8 40 -19 56 -27z m-2515 22 c-8 -5 -24 -10
-35 -10 -17 0 -17 2 -5 10 8 5 24 10 35 10 17 0 17 -2 5 -10z m3270 -10 c0 -5
-7 -10 -15 -10 -8 0 -15 5 -15 10 0 6 7 10 15 10 8 0 15 -4 15 -10z m-7132
-36 c3 -24 1 -26 -20 -21 -13 4 -36 7 -53 7 -38 0 -60 14 -52 33 4 12 19 15
64 12 55 -3 58 -5 61 -31z m4200 -4 c19 -33 35 -36 72 -15 40 23 60 19 60 -11
0 -23 3 -25 23 -20 39 12 52 11 49 -3 -5 -24 21 -32 90 -25 66 6 68 6 78 -21
7 -18 27 -34 65 -51 30 -14 55 -31 55 -39 0 -24 30 -38 93 -44 55 -5 62 -9 65
-29 2 -13 -5 -33 -15 -44 -17 -19 -17 -20 2 -34 10 -8 35 -14 55 -14 54 0 84
-41 40 -55 -29 -9 -25 -29 13 -60 17 -14 40 -33 50 -41 21 -17 22 -34 2 -34
-33 0 -24 -31 29 -105 31 -43 56 -86 56 -97 0 -17 -2 -17 -27 -3 -16 8 -38 22
-51 31 -22 17 -22 17 -12 -10 6 -16 28 -53 50 -84 48 -67 53 -97 14 -81 -15 5
-29 7 -32 4 -4 -3 11 -39 31 -81 20 -41 37 -79 37 -84 0 -5 -17 -8 -37 -7 -29
1 -37 -2 -35 -12 2 -8 1 -25 -3 -38 -4 -19 -10 -22 -29 -17 -22 5 -24 1 -35
-58 -19 -100 -20 -103 -36 -82 -12 17 -13 16 -26 -4 -8 -12 -18 -22 -22 -22
-14 0 -37 -27 -37 -44 0 -8 -4 -18 -10 -21 -5 -3 -10 0 -10 7 0 10 -3 9 -9 -2
-6 -8 -8 -17 -6 -20 2 -3 -35 -5 -81 -4 -46 1 -84 -2 -84 -7 0 -4 -11 3 -25
16 -13 14 -31 25 -40 25 -9 0 -13 5 -10 10 3 6 2 10 -3 10 -4 0 -16 -24 -25
-52 -21 -67 -93 -151 -158 -184 -118 -59 -287 -69 -403 -23 -76 30 -166 112
-202 185 -18 36 -29 80 -34 132 l-7 77 -2 -86 c-1 -70 -4 -89 -20 -103 -21
-19 -90 -28 -107 -14 -16 12 -62 -10 -66 -31 -2 -10 -16 6 -36 40 -32 57 -57
78 -65 56 -2 -7 -7 8 -12 33 -10 60 -12 62 -41 44 l-24 -16 0 70 c0 81 -13 98
-45 59 -11 -15 -24 -27 -28 -27 -4 0 -7 21 -7 48 0 61 -10 78 -38 63 -11 -6
-23 -11 -26 -11 -13 0 -4 38 20 90 45 95 47 103 27 97 -10 -2 -26 -8 -35 -12
-28 -11 -22 12 16 64 18 25 37 57 41 70 l7 24 -31 -22 -31 -22 0 28 c0 29 22
71 74 142 l28 40 -21 27 c-16 21 -18 30 -10 40 6 8 17 14 24 14 7 0 23 9 36
19 l24 19 -19 37 c-25 46 -14 55 66 55 31 0 59 4 62 9 3 4 -6 19 -19 31 -50
47 -23 80 63 80 54 0 74 14 66 47 -5 19 -1 21 55 25 33 2 63 7 67 11 3 3 1 20
-4 37 -14 40 -7 43 83 31 66 -8 72 -7 112 18 33 20 42 32 43 54 0 15 2 27 3
27 2 0 30 -9 62 -20 72 -25 82 -25 90 -1 6 19 22 28 58 30 10 1 25 -12 35 -29z
m2972 10 c0 -12 -29 -20 -35 -10 -9 15 4 30 20 23 8 -3 15 -9 15 -13z m1138
13 c-10 -2 -28 -2 -40 0 -13 2 -5 4 17 4 22 1 32 -1 23 -4z m-868 -23 c6 -11
20 -20 30 -20 11 0 20 -7 20 -15 0 -10 -10 -15 -33 -15 -39 0 -57 15 -57 47 0
29 25 30 40 3z m90 -20 c0 -16 -4 -30 -8 -30 -5 0 -7 14 -4 30 2 17 6 30 8 30
2 0 4 -13 4 -30z m-7091 6 c32 -20 3 -26 -101 -24 -116 3 -152 18 -68 28 56 7
155 4 169 -4z m5809 -4 c14 -9 8 -37 -14 -62 -7 -8 -14 -31 -16 -50 -2 -25 -8
-36 -22 -38 -17 -4 -18 1 -13 46 6 50 31 112 45 112 4 0 13 -4 20 -8z m156
-33 c-12 -13 -20 -16 -22 -9 -3 7 2 16 9 21 25 16 32 9 13 -12z m1286 17 c0
-9 -30 -14 -35 -6 -4 6 3 10 14 10 12 0 21 -2 21 -4z m-513 -12 c-7 -7 60 -44
81 -44 7 0 12 -8 10 -17 -4 -19 -12 -19 -95 -7 -39 6 -43 9 -43 34 0 16 6 31
13 33 18 8 41 8 34 1z m-867 -24 c6 -11 7 -20 2 -20 -10 0 -32 21 -32 32 0 16
19 8 30 -12z m-5531 -41 c-14 -28 -29 -23 -29 9 0 37 11 48 27 26 9 -12 9 -22
2 -35z m-337 35 c14 -4 16 -9 8 -25 -15 -27 -129 -28 -153 -1 -10 10 -15 21
-12 24 7 6 136 8 157 2z m6943 -14 c0 -17 -71 -26 -94 -11 -23 15 -5 26 46 26
36 0 48 -4 48 -15z m120 0 c-21 -23 -48 -26 -64 -6 -14 16 1 23 53 25 28 1 29
1 11 -19z m145 -5 c0 -18 -29 -32 -39 -19 -3 5 -12 9 -20 9 -8 0 -16 6 -18 13
-3 8 8 12 36 12 30 0 41 -4 41 -15z m550 0 c0 -8 -7 -15 -15 -15 -8 0 -15 7
-15 15 0 8 7 15 15 15 8 0 15 -7 15 -15z m177 -1 c-3 -3 -12 -4 -19 -1 -8 3
-5 6 6 6 11 1 17 -2 13 -5z m53 -8 c0 -3 -4 -8 -10 -11 -5 -3 -10 -1 -10 4 0
6 5 11 10 11 6 0 10 -2 10 -4z m-2145 -36 c3 -5 -1 -10 -9 -10 -9 0 -16 5 -16
10 0 6 4 10 9 10 6 0 13 -4 16 -10z m71 -76 c-4 -13 -11 -24 -17 -24 -11 0 -6
51 9 95 5 16 7 13 10 -14 2 -19 1 -44 -2 -57z m-226 47 c0 -5 13 -14 30 -21
34 -14 68 -49 36 -37 -11 5 -22 3 -26 -3 -5 -8 -21 -7 -56 2 -27 7 -50 13 -52
14 -2 1 4 14 13 28 16 24 55 37 55 17z m480 -111 c52 -47 107 -95 122 -106 32
-25 158 -136 248 -220 36 -33 100 -88 142 -123 92 -74 98 -81 60 -81 -19 0
-45 14 -79 43 -28 23 -68 56 -89 74 -22 17 -73 61 -114 97 -41 36 -80 66 -86
66 -6 0 -31 9 -55 19 -74 33 -344 261 -319 269 12 4 88 -51 176 -128 74 -65
144 -114 151 -106 7 7 -13 27 -70 70 -78 58 -227 208 -227 229 0 24 -7 29 140
-103z m-5919 81 c-8 -5 -20 -7 -28 -4 -21 8 -15 13 15 13 20 0 23 -3 13 -9z
m660 -36 c-1 -22 -8 -43 -15 -47 -13 -9 -208 -11 -230 -2 -9 3 -16 16 -16 28
0 16 -10 24 -40 34 -22 6 -50 13 -62 14 -71 4 90 15 217 14 l150 -1 -4 -40z
m5934 35 l30 -8 -34 -1 c-35 -1 -38 -10 -5 -15 9 -1 21 -12 25 -23 9 -26 -12
-31 -163 -40 l-108 -6 0 51 0 52 113 -1 c61 -1 126 -5 142 -9z m-6672 -7 c-13
-2 -33 -2 -45 0 -13 2 -3 4 22 4 25 0 35 -2 23 -4z m1032 -29 c16 -17 15 -41
-2 -37 -6 1 -28 3 -50 4 -36 3 -40 5 -30 20 6 10 20 20 32 22 11 2 23 5 27 6
4 0 14 -6 23 -15z m4505 -36 c26 -16 25 -25 -2 -39 -16 -9 -34 -8 -75 1 -30 8
-56 17 -58 21 -3 3 4 18 15 32 19 24 21 24 60 11 22 -8 49 -20 60 -26z m-4563
-14 c-3 -3 -12 -4 -19 -1 -8 3 -5 6 6 6 11 1 17 -2 13 -5z m4355 -12 c4 -4 -7
-38 -25 -75 l-32 -67 -245 -1 c-260 -1 -346 -7 -320 -24 9 -6 121 -8 283 -7
l267 4 -10 -27 c-17 -45 -11 -73 22 -111 44 -49 99 -74 171 -74 68 0 72 4 137
121 25 45 50 81 55 80 6 -1 9 -62 8 -167 -1 -96 1 -162 7 -159 5 3 8 23 8 44
0 45 10 70 22 51 10 -16 22 168 19 291 -3 97 -2 102 22 120 34 27 43 24 94
-25 l46 -44 -7 -206 c-5 -135 -4 -206 3 -206 6 0 13 58 17 140 4 77 13 157 20
177 8 24 10 46 5 61 -7 20 -6 21 10 13 10 -6 24 -17 31 -27 8 -9 48 -44 90
-78 84 -68 116 -95 174 -147 23 -20 83 -69 134 -109 60 -46 90 -76 84 -82 -5
-5 -79 -18 -163 -28 -158 -19 -243 -32 -479 -71 -195 -32 -207 -36 -257 -82
-82 -76 -76 21 -74 -1116 2 -675 6 -1032 13 -1066 6 -27 19 -67 29 -87 11 -21
19 -42 19 -48 0 -19 -40 -50 -64 -50 -23 0 -23 2 -14 40 17 64 -4 171 -45 239
-33 53 -35 60 -30 123 9 106 -22 167 -116 228 -19 13 -26 31 -37 104 -15 95
-37 153 -85 227 -16 25 -29 56 -29 68 0 12 18 52 39 88 22 36 55 99 73 142 31
72 33 82 33 196 0 105 -3 127 -24 175 -35 79 -90 151 -236 305 -71 75 -149
165 -174 200 l-45 65 24 68 c20 54 25 87 25 172 0 154 -34 244 -130 348 -30
33 -55 63 -55 67 0 18 44 66 56 61 8 -3 14 -1 14 3 0 5 -5 11 -10 13 -6 2 -2
26 10 60 11 32 20 68 20 80 l0 23 307 -2 c169 -2 311 -7 315 -11z m171 -121
c37 -29 67 -57 67 -63 0 -6 -10 -3 -22 6 -13 9 -40 25 -60 34 -21 9 -38 21
-38 25 0 5 5 5 10 2 6 -3 10 -3 10 0 0 8 -65 35 -86 35 -15 0 -15 -2 -1 -24
15 -22 14 -27 -3 -61 -18 -34 -18 -40 -4 -67 14 -26 67 -68 87 -68 4 0 17 23
29 50 11 28 25 50 31 50 11 0 4 -45 -17 -94 l-14 -34 -63 21 c-39 14 -78 36
-102 59 l-39 37 35 68 c19 37 40 83 47 101 l13 33 26 -28 c14 -16 56 -53 94
-82z m121 31 c-4 -12 -10 -22 -15 -22 -11 0 -12 44 -2 53 12 12 23 -8 17 -31z
m-164 -76 c0 -2 -9 -6 -19 -9 -14 -3 -19 0 -18 13 1 15 5 16 19 9 10 -5 18
-11 18 -13z m-25 -56 c3 -6 0 -10 -7 -10 -15 0 -38 19 -38 32 0 10 36 -8 45
-22z m-2870 -107 c-4 -16 -15 -79 -26 -142 -10 -62 -21 -123 -25 -133 -8 -27
-36 -58 -46 -52 -10 6 -9 128 1 247 9 97 15 107 70 107 31 0 33 -2 26 -27z
m2029 14 c17 -12 18 -27 12 -188 -7 -217 -7 -331 3 -365 l7 -26 27 36 c35 46
53 88 62 147 6 39 4 49 -13 65 -17 16 -21 38 -27 132 -5 68 -4 112 2 112 15 0
50 -54 62 -96 6 -21 11 -73 11 -114 0 -163 -30 -243 -111 -297 -54 -36 -59
-26 -52 109 4 68 2 112 -5 120 -5 7 -13 54 -17 103 -4 50 -13 128 -21 174 -8
45 -11 87 -8 92 8 13 48 11 68 -4z m-2168 -119 c-12 -149 -27 -220 -48 -226
-23 -6 -23 -25 3 -108 16 -53 31 -78 67 -113 52 -52 40 -69 -16 -24 -49 40
-78 101 -92 196 -19 121 -8 197 43 284 23 40 44 73 46 73 2 0 1 -37 -3 -82z
m-3486 -13 c58 -3 177 -13 265 -20 190 -17 632 -50 870 -65 94 -6 208 -15 255
-20 47 -5 132 -12 190 -15 186 -11 603 -45 685 -56 44 -5 147 -16 228 -23 113
-10 152 -17 165 -30 16 -15 17 -86 17 -911 0 -593 -3 -897 -10 -904 -11 -11
-1874 -17 -1955 -7 -25 4 -65 9 -90 13 -91 12 -410 24 -685 27 l-180 1 2 999
c1 549 4 1005 7 1013 5 12 18 14 69 9 34 -3 109 -8 167 -11z m8774 -9 c24 -10
40 -28 57 -62 l24 -49 0 -1131 0 -1130 -28 -42 c-27 -42 -95 -86 -123 -80 -9
2 4 17 33 38 25 19 56 48 67 63 21 28 21 30 21 1125 0 603 -3 1109 -8 1125 -4
15 -24 45 -43 67 -35 39 -38 40 -103 40 -61 0 -458 -47 -591 -70 -30 -5 -122
-16 -205 -25 -82 -9 -217 -26 -300 -40 -82 -13 -238 -36 -345 -50 -282 -39
-522 -80 -555 -96 -15 -8 -38 -27 -49 -42 -21 -28 -21 -33 -24 -980 -2 -524 0
-981 3 -1016 6 -57 11 -67 43 -97 25 -23 50 -35 77 -38 22 -3 92 -12 155 -19
l115 -14 -187 -2 c-183 -1 -187 -1 -215 23 -23 20 -28 34 -35 92 -3 38 -6 510
-4 1049 2 1080 -2 1006 64 1069 28 25 47 31 199 57 92 16 299 47 458 69 160
22 296 43 304 45 7 3 95 15 195 26 99 11 235 29 301 39 66 11 194 27 285 36
91 9 183 20 205 24 66 13 173 11 209 -4z m352 -31 c260 -26 380 -42 397 -52 5
-3 18 -24 28 -47 16 -36 18 -64 17 -236 l-2 -195 -6 200 c-3 110 -9 208 -14
218 -13 28 -45 36 -199 48 -78 6 -189 17 -246 25 -58 8 -126 14 -153 14 -50 0
-110 19 -122 39 -10 16 16 14 300 -14z m-436 -123 c23 -23 29 -40 35 -93 3
-35 5 -521 3 -1080 l-3 -1015 -27 -42 c-55 -82 36 -75 -1028 -76 -547 -1 -946
3 -943 8 3 5 -8 7 -26 4 -19 -3 -36 1 -42 9 -9 10 -7 13 9 13 l21 0 -21 36
c-44 75 -50 274 -36 1249 2 83 1 229 -2 325 -5 195 8 345 34 384 26 41 71 57
205 72 130 15 254 34 376 59 39 8 126 19 195 25 69 6 213 24 320 40 107 16
251 34 320 40 129 11 387 43 475 59 87 15 105 13 135 -17z m589 -153 c17 -7
21 -13 13 -21 -7 -7 -36 -7 -99 0 -48 6 -89 9 -90 8 -2 -1 -5 -158 -9 -348 -3
-190 -10 -360 -15 -379 -6 -24 -6 719 0 760 1 6 175 -11 200 -20z m53 -442
c-2 -238 -8 -436 -12 -441 -5 -5 -9 135 -10 318 0 327 8 572 19 560 3 -3 4
-200 3 -437z m-5674 229 c7 -35 12 -73 12 -85 0 -25 -45 -101 -60 -101 -20 0
-9 171 15 238 10 27 22 9 33 -52z m1910 22 c17 -68 25 -195 14 -202 -10 -6
-72 57 -72 73 0 5 7 11 15 15 11 4 15 23 15 81 0 83 12 97 28 33z m258 -45
c21 -32 97 -118 168 -193 148 -155 198 -226 227 -322 18 -59 20 -77 11 -131
-16 -97 -27 -131 -67 -209 -42 -81 -63 -110 -76 -102 -17 10 -9 51 20 105 16
30 34 73 41 97 6 23 15 42 19 42 5 0 12 7 15 16 3 8 2 13 -3 10 -4 -3 -11 21
-14 54 -9 100 -59 188 -181 317 -58 61 -106 114 -106 118 0 4 -29 38 -64 77
-35 38 -72 85 -82 104 l-19 35 25 19 c14 11 30 20 36 20 6 0 28 -26 50 -57z
m-2371 27 c15 -17 16 -24 6 -46 -15 -34 -104 -142 -221 -269 -127 -138 -187
-233 -203 -325 -9 -50 15 -152 56 -241 33 -70 40 -119 17 -119 -10 0 -90 133
-117 196 -45 104 -37 248 18 357 12 23 94 116 183 207 89 91 175 186 191 212
34 53 44 57 70 28z m286 -137 c6 -20 19 -50 29 -67 22 -40 17 -134 -7 -115 -8
7 -24 31 -35 53 -17 33 -19 52 -15 102 4 41 2 66 -6 75 -10 11 -9 11 5 0 9 -7
22 -29 29 -48z m1729 -57 c-12 -62 -46 -136 -63 -136 -14 0 0 74 22 112 11 18
25 53 32 78 17 63 24 24 9 -54z m-1590 -98 c44 -73 69 -98 97 -98 l24 0 -23
-30 -22 -30 -28 27 c-30 28 -72 108 -84 156 -9 40 0 33 36 -25z m1451 -27
c-23 -45 -78 -111 -92 -111 -5 0 -9 9 -9 20 0 11 4 20 9 20 4 0 29 27 56 61
26 33 49 58 52 56 2 -3 -5 -23 -16 -46z m4246 -208 c-2 -37 -3 -9 -3 62 0 72
1 102 3 68 2 -34 2 -93 0 -130z m-5820 3 c13 -49 32 -104 41 -120 17 -29 22
-31 79 -31 l61 -1 51 -61 c54 -64 85 -83 104 -64 8 8 8 19 1 39 -8 20 7 9 62
-45 77 -77 110 -92 102 -49 -5 24 -4 24 21 11 14 -7 44 -27 65 -44 46 -37 73
-37 68 -1 -2 14 -9 31 -15 39 -23 28 138 -91 163 -121 l26 -30 34 33 c44 40
170 122 178 114 3 -3 0 -11 -6 -17 -19 -19 -14 -38 11 -38 22 0 51 17 161 96
50 35 72 39 43 6 -18 -20 -22 -42 -9 -42 5 0 17 8 26 19 9 10 38 27 64 36 62
23 107 58 140 107 14 22 28 35 30 29 5 -14 74 -14 105 0 31 14 60 72 121 244
7 19 9 19 30 -8 12 -15 38 -35 56 -45 21 -10 37 -27 40 -42 4 -17 14 -26 30
-29 67 -9 287 -285 407 -511 28 -52 68 -122 88 -155 42 -70 65 -142 68 -215 2
-50 4 -54 54 -93 28 -23 63 -63 77 -88 29 -52 35 -102 11 -93 -24 10 -31 -45
-10 -80 69 -119 85 -155 91 -211 7 -55 6 -59 -10 -46 -9 7 -39 50 -66 95 -27
44 -59 92 -70 106 -19 25 -20 25 -20 3 0 -12 5 -25 10 -28 6 -4 8 -15 5 -25
-3 -10 0 -22 6 -26 9 -5 10 -2 5 12 -4 13 2 9 18 -10 26 -29 42 -64 33 -72
-10 -10 -57 20 -57 38 0 12 -7 18 -25 18 -19 0 -23 4 -18 18 6 15 4 15 -9 4
-9 -7 -20 -27 -23 -43 -7 -32 -8 -32 -54 -23 -21 5 -31 12 -31 25 0 15 -8 19
-40 19 -33 0 -40 -4 -40 -19 0 -19 -36 -31 -97 -32 -13 -1 -23 -7 -23 -15 0
-14 -72 -21 -162 -16 -34 2 -38 0 -38 -23 0 -14 -2 -25 -4 -25 -16 0 -36 14
-36 26 0 8 -9 14 -20 14 -12 0 -20 7 -20 16 0 12 -6 15 -26 10 -17 -5 -23 -3
-19 4 9 14 -8 13 -23 -2 -7 -7 -12 -9 -12 -6 0 14 -77 -26 -158 -80 -55 -37
-91 -69 -105 -94 -15 -26 -29 -38 -44 -38 -49 0 -20 61 69 147 89 84 145 118
268 158 169 54 285 67 376 40 16 -5 23 -2 27 14 6 23 36 28 54 10 9 -9 13 -2
19 26 5 30 3 40 -11 47 -19 11 -25 18 -90 97 -25 30 -45 62 -46 70 0 12 -3 11
-10 -4 -8 -17 -9 -16 -6 7 3 16 -2 33 -9 39 -8 6 -11 15 -8 20 3 5 -2 6 -10 3
-9 -3 -16 -2 -16 3 0 10 -22 35 -61 69 -46 41 -106 110 -167 195 -57 79 -101
117 -121 104 -5 -2 -11 -28 -15 -57 -8 -67 -23 -156 -25 -144 0 5 -8 3 -16 -4
-9 -7 -13 -21 -10 -31 5 -14 1 -19 -14 -19 -18 0 -21 -6 -21 -40 0 -38 -1 -40
-25 -34 -21 5 -25 3 -25 -15 0 -12 5 -21 11 -21 5 0 7 -5 3 -11 -4 -8 -9 -8
-17 0 -21 21 -39 12 -35 -16 3 -23 -2 -28 -29 -35 -19 -5 -33 -15 -33 -24 0
-8 -4 -12 -10 -9 -5 3 -10 0 -10 -8 0 -16 -24 -30 -34 -20 -3 4 -6 15 -6 25 0
15 -8 18 -50 18 -28 0 -58 -4 -68 -9 -9 -5 -31 -16 -49 -23 -19 -7 -33 -21
-35 -33 -3 -17 -12 -21 -58 -23 -67 -4 -140 6 -140 19 0 5 18 9 40 9 22 0 40
5 40 10 0 6 -9 10 -20 10 -13 0 -20 7 -20 20 0 19 -7 20 -180 20 -173 0 -180
1 -180 20 0 17 -7 20 -40 20 -33 0 -40 3 -40 20 0 18 -7 20 -60 20 l-60 0 0
35 0 35 -49 0 c-27 0 -63 3 -80 6 -27 6 -31 4 -31 -15 0 -18 -6 -21 -40 -21
-33 0 -40 -3 -40 -20 0 -13 -7 -20 -20 -20 -13 0 -20 -7 -20 -20 0 -22 -6 -24
-61 -21 -21 2 -54 -6 -77 -18 l-40 -20 -12 29 c-7 16 -9 34 -5 39 3 6 -1 11
-9 11 -9 0 -15 6 -13 13 1 6 -5 11 -14 11 -11 -1 -15 6 -12 25 2 14 0 20 -3
13 -13 -28 -42 60 -48 146 -6 99 -12 151 -19 158 -12 12 -97 -75 -157 -162
-38 -54 -73 -98 -79 -97 -6 2 -11 -1 -11 -5 0 -11 -129 -142 -140 -142 -9 0
-14 -17 -13 -47 0 -6 -5 -9 -13 -6 -7 2 -19 -5 -26 -16 -12 -20 -38 -29 -38
-13 0 4 -18 6 -40 6 -36 -1 -47 -8 -91 -54 -28 -29 -48 -59 -45 -66 8 -20 -36
-153 -53 -159 -7 -3 -20 3 -27 12 -13 17 -14 17 -8 -2 4 -15 1 -13 -10 5 -8
14 -15 19 -16 13 0 -7 -5 -13 -10 -13 -6 0 1 20 14 45 14 25 22 45 17 45 -4 0
-23 -27 -42 -60 -48 -85 -108 -170 -121 -170 -14 0 -2 80 22 142 10 26 34 67
54 91 38 46 45 67 23 67 -15 0 -37 41 -37 69 0 52 48 116 128 170 29 20 32 27
32 74 0 79 20 139 98 292 82 161 159 286 254 409 68 88 112 130 179 168 31 17
39 28 44 60 7 39 7 39 48 36 39 -2 43 0 62 34 19 36 20 36 34 15 8 -11 25 -61
38 -111z m341 101 c17 -14 45 -67 38 -74 -4 -4 -54 32 -120 89 -14 11 67 -3
82 -15z m1022 -27 c-34 -27 -54 -27 -40 0 7 13 21 20 38 20 l27 0 -25 -20z
m3975 -711 c4 -277 10 -508 15 -513 10 -10 175 -4 187 7 4 5 10 206 13 447 3
241 8 442 13 446 4 4 8 -148 9 -337 2 -446 -1 -572 -16 -581 -20 -13 -211 -9
-228 5 -14 10 -16 56 -19 362 -3 474 0 715 11 689 4 -11 11 -248 15 -525z
m150 159 c3 -7 1 -26 -3 -43 -6 -22 -15 -31 -34 -33 -22 -3 -26 2 -33 34 -4
26 -3 39 7 45 20 13 58 11 63 -3z m-9145 -581 c42 -18 147 -98 167 -127 30
-43 5 -41 -44 3 -29 25 -83 60 -120 79 -63 30 -75 33 -168 33 -85 -1 -107 -4
-150 -25 -66 -32 -117 -86 -134 -140 -17 -53 -30 -72 -43 -64 -13 8 -1 69 22
114 31 59 82 99 179 136 48 19 242 13 291 -9z m180 -37 c0 -5 -2 -10 -4 -10
-3 0 -8 5 -11 10 -3 6 -1 10 4 10 6 0 11 -4 11 -10z m65 -9 l-20 -8 20 -5 c16
-5 15 -6 -6 -7 -17 -1 -26 4 -26 14 0 10 10 15 26 14 23 0 24 -1 6 -8z m113
-10 c-4 -13 54 -61 73 -61 20 0 43 -26 35 -39 -3 -5 -3 -16 0 -25 5 -12 20
-16 61 -16 46 0 56 3 60 20 3 11 12 20 19 20 11 0 14 -23 14 -109 0 -64 -4
-112 -10 -116 -6 -4 -51 -8 -102 -9 -86 -2 -92 -3 -116 -31 l-24 -29 7 60 c9
82 -6 135 -49 168 -42 32 -78 88 -70 110 4 10 18 16 40 16 30 0 34 3 34 25 0
16 6 25 15 25 8 0 14 -4 13 -9z m710 -99 c3 -97 2 -102 -18 -102 -19 0 -20 6
-20 106 0 95 2 105 18 102 15 -3 17 -17 20 -106z m-597 41 c13 -15 12 -15 -8
-4 -24 12 -29 21 -14 21 5 0 15 -7 22 -17z m-751 -13 c0 -5 -4 -10 -10 -10 -5
0 -10 5 -10 10 0 6 5 10 10 10 6 0 10 -4 10 -10z m140 -66 c0 -8 -5 -12 -10
-9 -6 4 -8 11 -5 16 9 14 15 11 15 -7z m-80 -30 c61 -52 89 -142 59 -195 -13
-23 -14 -22 -19 21 -7 54 -47 138 -73 152 -22 11 -47 -5 -47 -31 0 -9 -5 -22
-11 -28 -19 -19 -1 -78 32 -107 34 -30 35 -59 3 -64 -18 -3 -25 7 -42 55 -42
113 -39 164 12 205 29 24 49 22 86 -8z m160 5 c0 -19 4 -21 31 -15 31 6 31 5
25 -27 -3 -17 -9 -56 -12 -85 -6 -45 -11 -55 -32 -63 -32 -12 -42 1 -42 57 0
22 -10 61 -23 86 -25 50 -19 67 26 68 21 0 27 -5 27 -21z m268 -22 c59 -54 70
-144 26 -196 -34 -40 -49 -40 -28 1 23 45 14 110 -23 156 -17 20 -37 38 -46
40 -22 5 -47 -48 -47 -101 0 -37 5 -48 25 -61 29 -19 33 -46 7 -46 -28 0 -53
33 -59 79 -6 45 8 89 44 138 21 29 26 31 51 22 15 -6 38 -20 50 -32z m-611
-41 c-4 -9 -11 -16 -17 -16 -11 0 -14 33 -3 44 11 10 26 -11 20 -28z m3786 8
c149 -34 312 -127 398 -226 53 -62 95 -126 87 -132 -2 -2 -16 1 -33 5 -18 5
-41 25 -58 49 -16 22 -44 52 -63 66 -33 25 -35 26 -53 10 -17 -15 -32 -17
-113 -10 -59 5 -84 10 -68 14 17 4 4 8 -44 12 -38 3 -71 10 -75 14 -7 10 -63
33 -98 41 -13 3 -23 9 -23 14 0 5 -9 9 -20 9 -26 0 -28 45 -2 55 16 6 16 7 -2
21 -13 9 -45 14 -88 14 -53 0 -68 3 -68 14 0 40 197 58 323 30z m-3069 -20 c9
-23 7 -87 -3 -102 -8 -13 -21 50 -21 99 0 23 16 25 24 3z m-767 -56 c6 -29 15
-65 18 -80 6 -21 4 -28 -8 -28 -21 0 -66 128 -52 150 15 24 32 6 42 -42z
m1505 -28 c104 -50 158 -71 198 -75 30 -3 314 -2 630 3 545 8 576 7 594 -10
11 -9 18 -20 15 -22 -2 -3 -292 -6 -644 -7 -473 -1 -652 2 -684 11 -34 9 -256
117 -280 136 -4 3 18 34 24 34 2 0 68 -31 147 -70z m37 54 c17 -4 31 -12 31
-19 0 -8 15 -17 33 -20 17 -4 38 -12 46 -19 8 -6 26 -16 40 -23 23 -10 24 -11
5 -12 -12 -1 -60 17 -107 39 -47 22 -90 40 -95 40 -6 0 -14 5 -17 10 -7 11 18
13 64 4z m1242 -40 c43 -20 80 -43 83 -51 5 -11 1 -12 -17 -6 -12 4 -42 6 -67
4 -25 -1 -116 -4 -203 -4 -141 -2 -159 0 -168 16 -12 20 -34 23 -26 3 4 -9 -3
-16 -19 -19 -26 -5 -43 8 -22 16 9 4 10 6 1 6 -6 1 -15 -3 -18 -9 -11 -18 -41
-13 -94 17 -2 2 2 9 9 18 14 17 50 21 50 5 0 -5 -7 -10 -16 -10 -8 0 -12 -4
-9 -10 10 -16 45 -12 52 6 19 51 -110 42 -132 -9 -6 -12 -19 -23 -30 -25 -18
-4 -17 -1 8 25 31 33 34 43 12 43 -8 0 -15 -7 -15 -15 0 -9 -9 -15 -24 -15
-13 0 -29 7 -36 15 -14 17 -35 21 -25 5 3 -5 -3 -10 -14 -10 -23 0 -28 15 -8
23 6 3 2 6 -10 6 -27 1 -28 -2 -7 -35 14 -20 22 -23 49 -18 20 3 35 1 40 -6
10 -16 -3 -26 -17 -12 -15 15 -31 16 -22 0 5 -8 -2 -9 -23 -5 -17 3 -35 1 -41
-5 -7 -7 -15 -8 -19 -4 -5 4 0 13 9 20 13 10 15 15 6 24 -7 7 -18 12 -25 12
-24 0 -13 28 13 34 15 4 159 6 320 5 162 -2 297 1 301 5 14 13 73 -2 154 -40z
m-833 23 c17 -14 15 -28 -4 -20 -9 3 -20 0 -24 -8 -13 -21 -2 -29 26 -19 22 9
25 7 22 -7 -5 -29 -33 -26 -69 6 -23 21 -36 27 -45 21 -8 -7 -15 -5 -24 5 -7
8 -20 15 -29 15 -14 0 -14 -2 -1 -10 19 -12 6 -25 -17 -15 -34 15 -48 18 -92
16 -24 -1 -49 3 -55 8 -6 5 -20 11 -31 13 -11 3 59 5 155 5 100 0 180 -4 188
-10z m-255 -44 c-7 -2 -19 -2 -25 0 -7 3 -2 5 12 5 14 0 19 -2 13 -5z m56 -16
c6 -8 8 -16 5 -20 -10 -9 -34 4 -34 19 0 18 14 18 29 1z m49 -15 c2 -7 -3 -12
-12 -12 -9 0 -16 7 -16 16 0 17 22 14 28 -4z m39 1 c-9 -9 -19 -14 -23 -11
-10 10 6 28 24 28 15 0 15 -1 -1 -17z m48 7 c3 -5 -1 -10 -9 -10 -9 0 -16 5
-16 10 0 6 4 10 9 10 6 0 13 -4 16 -10z m343 -7 c2 -8 -5 -13 -17 -13 -12 0
-21 6 -21 16 0 18 31 15 38 -3z m6735 -31 c9 -8 17 -22 17 -30 0 -12 -10 -14
-51 -9 -76 9 -105 43 -48 57 30 8 59 1 82 -18z m-1080 -7 c31 -10 57 -21 57
-25 0 -3 -97 -7 -215 -9 -192 -2 -219 -1 -242 15 -15 9 -47 23 -73 30 -40 12
-19 13 185 10 190 -2 240 -6 288 -21z m285 -4 c4 -23 4 -23 -74 -17 -74 6
-104 17 -104 38 0 5 39 7 88 6 83 -3 87 -4 90 -27z m-2178 9 c0 -5 -4 -10 -10
-10 -5 0 -10 5 -10 10 0 6 5 10 10 10 6 0 10 -4 10 -10z m-2756 -70 c-8 -78 7
-116 48 -122 26 -3 37 -41 18 -64 -20 -23 -33 -16 -72 37 -43 59 -50 110 -22
179 24 60 35 49 28 -30z m-2159 35 c133 -25 183 -63 244 -182 32 -63 25 -62
-19 4 -61 92 -154 151 -265 168 -45 7 -83 25 -53 25 9 0 51 -7 93 -15z m5625
-68 c0 -26 -6 -60 -14 -76 -19 -36 -94 -103 -106 -96 -22 13 -8 48 34 86 35
33 45 49 51 86 4 25 9 52 12 60 10 26 23 -8 23 -60z m658 65 c23 -4 41 -11 40
-17 -3 -12 -357 -14 -365 -2 -13 21 18 27 145 26 75 0 156 -4 180 -7z m-7011
-59 c51 -50 116 -161 163 -278 36 -88 137 -224 209 -282 123 -99 263 -138 459
-131 83 3 108 1 95 -6 -10 -6 -75 -11 -153 -11 -122 0 -143 3 -220 29 -92 31
-107 39 -194 104 -81 62 -135 140 -228 330 -64 132 -90 174 -140 227 -70 75
-63 88 9 18z m2754 -38 c3 -22 13 -54 22 -72 9 -18 17 -35 17 -39 0 -4 -123
-4 -272 0 -150 3 -292 6 -316 6 -62 -1 -82 7 -82 36 0 19 5 24 28 25 15 0 36
4 47 8 17 7 14 9 -15 14 -51 9 -1032 11 -1125 2 -74 -7 -81 -6 -99 14 -11 12
-17 24 -13 27 14 15 247 19 997 19 l805 0 6 -40z m-1973 19 c12 -8 20 -20 17
-25 -9 -13 -705 -11 -722 3 -19 16 -16 26 10 31 12 2 168 5 347 6 281 1 329
-1 348 -15z m5838 -21 c-3 -21 -6 -55 -6 -75 l0 -38 -105 0 c-118 0 -119 0
-80 69 14 23 25 52 25 62 0 17 8 19 86 19 l87 0 -7 -37z m-6722 7 c7 -7 -16
-10 -74 -10 -52 0 -80 4 -75 9 22 21 128 22 149 1z m6995 -9 c10 -6 -4 -13
-45 -21 -83 -17 -84 -17 -84 -37 0 -10 -9 -35 -20 -56 -18 -32 -20 -56 -20
-197 0 -92 -4 -160 -9 -160 -5 0 -17 7 -25 16 -13 13 -16 43 -16 172 0 86 -3
187 -7 225 l-6 67 109 0 c60 0 115 -4 123 -9z m-4849 -50 c0 -12 8 -21 23 -24
12 -2 3 -5 -20 -6 -36 -1 -43 2 -43 17 0 22 8 32 27 32 7 0 13 -9 13 -19z
m1058 -79 c3 -20 -1 -22 -37 -22 -46 0 -57 24 -18 40 33 13 52 8 55 -18z m258
6 c9 -15 -27 -48 -53 -48 -27 0 -31 25 -7 51 15 17 49 15 60 -3z m232 16 c12
-4 22 -9 22 -13 0 -18 -28 -40 -58 -46 -32 -7 -33 -6 -26 22 11 47 15 49 62
37z m156 -3 c10 -15 -19 -43 -54 -51 -32 -7 -33 -9 -12 -15 15 -5 22 -15 22
-31 0 -21 -5 -24 -36 -24 -33 0 -36 2 -29 23 4 12 9 36 12 52 2 17 6 36 8 43
5 14 81 17 89 3z m121 -1 c3 -5 1 -19 -5 -30 -8 -15 -21 -20 -50 -20 -44 0
-47 5 -24 38 16 23 67 31 79 12z m1333 -23 l3 -27 -563 2 c-555 3 -563 3 -563
23 0 18 9 20 105 26 58 3 310 5 560 5 l455 -1 3 -28z m440 1 c3 -27 2 -28 -47
-28 -50 0 -51 1 -51 31 0 30 1 30 48 27 43 -3 47 -5 50 -30z m-2398 8 c0 -15
-10 -19 -67 -31 -28 -6 -33 -4 -33 13 0 27 8 32 57 32 31 0 43 -4 43 -14z
m210 0 c0 -29 -13 -46 -35 -46 -34 0 -42 20 -15 42 27 22 50 23 50 4z m560 2
c0 -21 -14 -36 -43 -47 -39 -15 -47 -14 -47 8 0 40 11 51 51 51 25 0 39 -5 39
-12z m1348 -10 c-2 -19 -10 -24 -42 -26 -38 -3 -56 8 -56 36 0 8 17 12 51 12
47 0 50 -2 47 -22z m142 3 c0 -34 -92 -44 -110 -12 -16 30 -14 31 50 31 52 0
60 -2 60 -19z m604 0 c16 -18 16 -19 -19 -23 -21 -2 -40 1 -46 9 -27 32 36 46
65 14z m1100 8 c40 -19 60 -111 35 -164 -6 -14 -7 -8 -3 22 7 55 -15 97 -66
123 -22 11 -40 23 -40 25 0 9 49 5 74 -6z m-1374 -18 c0 -26 -77 -35 -90 -10
-13 23 -3 29 47 29 36 0 43 -3 43 -19z m150 -1 c0 -19 -4 -20 -37 -15 -53 9
-63 13 -63 25 0 5 22 10 50 10 44 0 50 -3 50 -20z m603 -36 l37 -7 0 -149 0
-150 38 -38 c60 -61 108 -70 364 -70 124 0 218 4 218 9 0 14 -59 60 -86 67
-17 4 -24 13 -24 29 0 20 7 24 42 30 58 10 113 65 129 128 6 26 16 47 23 47 6
0 69 -44 140 -97 71 -54 156 -117 190 -141 34 -23 87 -65 118 -92 31 -28 63
-50 71 -50 26 0 34 -24 36 -110 2 -96 -6 -101 -19 -10 -5 34 -11 65 -14 68 -3
3 -1469 5 -3258 5 l-3253 0 -3 -69 c-3 -64 -17 -104 -32 -87 -3 4 -4 52 -2
106 l4 97 686 2 c378 1 1835 3 3237 4 1403 0 2555 2 2560 3 6 1 3 6 -5 11 -9
6 -199 10 -486 10 -259 0 -566 3 -682 7 l-212 6 0 77 c0 74 -1 77 -36 111 -20
18 -45 52 -56 74 -12 22 -34 59 -49 82 -32 46 -27 53 40 53 23 0 48 8 63 19
31 25 145 37 221 25z m-4503 -19 c0 -8 -8 -19 -19 -24 -32 -18 -54 -80 -55
-156 -1 -85 13 -112 81 -152 47 -27 52 -28 193 -28 129 0 149 2 185 22 74 40
88 63 88 146 -1 82 -16 122 -66 175 l-31 32 161 0 c155 0 163 -1 177 -22 12
-16 28 -22 71 -26 30 -2 55 -5 55 -7 0 -8 -103 -171 -125 -196 -24 -30 -26
-39 -24 -103 2 -39 0 -77 -5 -84 -6 -10 -149 -12 -707 -11 -384 1 -697 5 -694
9 2 4 80 58 172 121 217 146 306 211 370 271 50 46 54 48 112 48 47 0 61 -3
61 -15z m273 2 c75 -32 137 -113 137 -179 0 -23 -3 -29 -9 -19 -7 11 -10 9
-16 -8 -3 -11 -13 -21 -21 -21 -8 0 -14 -4 -14 -10 0 -18 -18 -11 -85 35 -37
25 -91 57 -122 70 -40 18 -54 29 -49 40 3 8 2 15 -3 15 -9 0 -61 -52 -86 -85
-14 -20 -14 -20 -15 1 0 42 50 123 93 149 48 29 136 34 190 12z m716 -9 c-16
-30 -28 -38 -61 -38 -31 0 -34 10 -16 40 9 14 24 20 51 20 36 0 37 -1 26 -22z
m130 6 c2 -2 -4 -15 -13 -29 -15 -22 -22 -25 -49 -19 -41 8 -40 7 -26 38 11
23 16 26 48 20 20 -4 38 -8 40 -10z m221 -8 c0 -7 -6 -20 -12 -28 -17 -22 -70
-13 -66 11 6 32 78 48 78 17z m664 11 c31 -22 10 -47 -40 -47 -50 0 -53 4 -22
37 25 26 37 28 62 10z m1282 -4 c9 -33 4 -37 -41 -38 -43 -1 -45 0 -45 27 0
26 3 28 41 28 31 0 42 -4 45 -17z m142 -9 c2 -17 -3 -22 -33 -27 -48 -8 -65 0
-65 30 0 23 3 24 48 21 39 -2 48 -7 50 -24z m132 -4 c0 -26 -4 -30 -26 -30
-36 0 -64 17 -64 40 0 17 7 20 45 20 43 0 45 -1 45 -30z m358 3 c3 -20 -1 -23
-35 -23 -47 0 -68 13 -60 35 5 12 17 15 49 13 36 -2 44 -7 46 -25z m130 15
c24 -24 13 -38 -28 -38 -22 0 -40 2 -40 4 0 2 -3 11 -6 19 -4 11 2 17 18 20
40 8 44 7 56 -5z m-2819 -7 c25 -16 -6 -41 -50 -41 -43 0 -47 5 -22 32 17 19
49 23 72 9z m286 -11 c0 -10 -13 -16 -42 -18 -38 -3 -43 -1 -43 18 0 19 5 21
43 18 29 -2 42 -8 42 -18z m245 -3 c0 -33 -5 -35 -55 -24 -38 9 -43 12 -34 29
7 13 21 18 49 18 35 0 40 -3 40 -23z m510 -1 c0 -33 -13 -39 -66 -31 -32 4
-44 11 -44 23 0 13 -3 12 -16 -6 -11 -16 -25 -22 -54 -22 -42 0 -54 9 -44 34
6 17 24 20 142 24 81 3 82 3 82 -22z m131 2 c-4 -12 -23 -27 -42 -33 l-34 -12
31 -7 c19 -4 34 -15 37 -26 4 -16 -2 -21 -32 -25 -20 -3 -44 -8 -53 -9 -15 -3
-17 5 -17 65 l0 69 59 0 c57 0 59 -1 51 -22z m127 0 c-3 -19 -11 -22 -55 -26
-51 -3 -53 -3 -53 22 0 25 3 26 56 26 51 0 55 -2 52 -22z m132 -3 c0 -24 -3
-25 -55 -25 -52 0 -55 1 -55 25 0 24 3 25 55 25 52 0 55 -1 55 -25z m128 3
c-3 -20 -10 -23 -55 -26 -51 -3 -53 -2 -53 22 0 25 3 26 56 26 52 0 55 -1 52
-22z m122 -3 c0 -23 -3 -25 -50 -25 -47 0 -50 2 -50 25 0 23 3 25 50 25 47 0
50 -2 50 -25z m118 -2 c3 -21 0 -23 -47 -23 -48 0 -51 2 -51 26 0 24 2 25 48
22 40 -3 47 -6 50 -25z m126 11 c11 -29 6 -34 -37 -34 -43 0 -67 13 -67 37 0
20 96 18 104 -3z m626 -20 c0 -10 -14 -14 -50 -14 -43 0 -50 3 -50 19 0 16 8
20 38 23 40 3 62 -6 62 -28z m-1882 4 c-2 -19 -10 -24 -40 -26 -38 -3 -43 2
-32 32 4 10 18 16 41 16 30 0 34 -3 31 -22z m3209 -5 c36 -54 12 -143 -39
-143 -16 0 -18 9 -18 78 0 43 3 82 7 85 13 14 33 6 50 -20z m-3898 -49 c2 -2
-4 -12 -13 -23 -22 -24 -86 -25 -86 -1 0 28 22 41 60 34 19 -4 37 -8 39 -10z
m274 -10 c-3 -9 -15 -14 -32 -12 -31 4 -31 21 1 29 29 7 39 2 31 -17z m120 20
c14 -14 -15 -44 -42 -44 -35 0 -43 8 -30 31 9 18 58 27 72 13z m266 -3 c23
-15 2 -31 -40 -31 -37 0 -39 2 -29 20 11 21 45 26 69 11z m141 -2 c0 -31 -22
-49 -61 -49 -36 0 -40 2 -37 22 2 14 13 25 28 29 39 11 70 10 70 -2z m109 -5
c2 -2 1 -10 -2 -19 -7 -17 -72 -21 -82 -5 -15 25 3 39 42 33 21 -3 40 -7 42
-9z m401 -9 c0 -24 -3 -25 -55 -25 -55 0 -61 4 -49 34 4 12 20 16 55 16 46 0
49 -2 49 -25z m140 0 c0 -24 -3 -25 -60 -25 -60 0 -66 4 -54 34 5 12 20 16 60
16 51 0 54 -1 54 -25z m130 0 c0 -24 -3 -25 -55 -25 -52 0 -55 1 -55 25 0 24
3 25 55 25 52 0 55 -1 55 -25z m130 0 c0 -23 -3 -25 -50 -25 -27 0 -50 4 -50
9 0 5 -3 16 -6 25 -5 13 3 16 50 16 53 0 56 -1 56 -25z m128 -2 c3 -22 0 -23
-52 -23 -53 0 -56 1 -56 26 0 24 2 25 53 22 45 -3 52 -6 55 -25z m122 6 c7
-11 10 -22 8 -24 -2 -1 -24 -5 -50 -7 -47 -5 -48 -5 -48 23 0 27 3 29 40 29
30 0 42 -5 50 -21z m134 5 c12 -30 6 -34 -49 -34 -52 0 -55 1 -55 25 0 23 3
25 49 25 35 0 51 -4 55 -16z m136 -9 c0 -23 -3 -25 -50 -25 -47 0 -50 2 -50
25 0 23 3 25 50 25 47 0 50 -2 50 -25z m125 0 c0 -16 -8 -21 -42 -23 -37 -3
-43 0 -43 17 0 23 14 31 55 28 23 -2 30 -7 30 -22z m253 13 c20 -20 14 -28
-22 -28 -33 0 -62 20 -49 33 11 11 58 8 71 -5z m120 0 c23 -23 14 -39 -20 -36
-25 2 -34 8 -36 26 -3 17 1 22 20 22 13 0 29 -5 36 -12z m-3000 -4 c22 -6 22
-8 6 -25 -17 -19 -74 -27 -74 -10 0 37 20 47 68 35z m110 -2 c16 -11 11 -38
-17 -84 -24 -39 -35 -44 -60 -29 -22 14 1 59 34 67 14 3 25 10 25 16 0 5 -4 6
-10 3 -15 -9 -30 4 -23 20 6 16 31 19 51 7z m257 -9 c-4 -10 -12 -36 -18 -58
-5 -22 -11 -46 -13 -53 -3 -9 -12 -11 -26 -7 -40 12 -42 23 -15 63 15 21 27
46 27 55 0 12 8 17 26 17 21 0 25 -3 19 -17z m428 10 c13 -13 -16 -33 -49 -33
-27 0 -34 4 -34 20 0 17 7 20 38 20 21 0 42 -3 45 -7z m519 1 c3 -3 3 -14 1
-25 -5 -17 -11 -19 -52 -14 -64 9 -71 12 -65 30 5 11 21 15 58 15 29 0 55 -3
58 -6z m1801 0 c12 -12 -6 -34 -29 -34 -17 0 -24 6 -24 20 0 14 7 20 23 20 13
0 26 -3 30 -6z m3252 -166 c8 -174 5 -220 -12 -226 -10 -3 -13 24 -13 111 0
63 -3 148 -6 190 -6 66 -5 77 8 77 13 0 17 -25 23 -152z m-5435 102 c0 -6 -11
-16 -25 -22 -14 -6 -25 -15 -25 -20 0 -4 -9 -8 -20 -8 -22 0 -23 3 -14 38 5
18 13 22 45 22 22 0 39 -5 39 -10z m235 0 c3 -6 4 -19 0 -29 -8 -26 -85 -25
-85 1 0 30 70 53 85 28z m555 -9 c0 -29 -20 -38 -72 -33 -38 3 -48 8 -48 22 0
20 19 26 83 29 30 1 37 -3 37 -18z m130 -11 c0 -29 -1 -30 -50 -30 -38 0 -52
4 -60 19 -15 29 -14 30 38 34 26 2 53 4 60 5 7 1 12 -10 12 -28z m135 0 c0
-23 -4 -25 -47 -28 -39 -3 -47 0 -53 17 -10 33 3 42 53 39 43 -3 47 -5 47 -28z
m125 6 c0 -18 -7 -25 -31 -30 -51 -10 -59 -7 -59 17 0 32 7 37 52 37 33 0 38
-3 38 -24z m138 -8 c3 -28 2 -28 -52 -28 -53 0 -56 1 -56 24 0 20 6 25 33 29
60 8 72 4 75 -25z m130 0 c3 -27 2 -28 -47 -28 -50 0 -51 1 -51 31 0 30 1 30
48 27 43 -3 47 -5 50 -30z m132 3 c0 -28 -2 -29 -50 -29 -46 -1 -50 1 -50 23
0 27 11 33 63 34 34 1 37 -1 37 -28z m130 -2 c0 -30 -1 -30 -47 -27 -37 2 -49
7 -51 22 -5 24 14 36 61 36 35 0 37 -2 37 -31z m138 3 c3 -17 -2 -22 -17 -22
-14 0 -21 6 -21 18 0 38 33 41 38 4z m122 9 c0 -26 -41 -36 -57 -14 -20 26
-16 33 22 33 28 0 35 -4 35 -19z m-2931 -6 c2 -2 1 -11 -2 -20 -9 -23 -67 -20
-67 3 0 10 3 22 7 26 7 6 53 0 62 -9z m271 8 c-1 -20 -31 -45 -58 -49 -35 -6
-47 8 -32 36 8 15 21 20 50 20 22 0 40 -3 40 -7z m286 -5 c7 -11 -21 -38 -40
-38 -22 0 -39 18 -33 34 7 19 62 22 73 4z m127 6 c3 -4 2 -14 -3 -23 -6 -13
-18 -16 -44 -13 -35 4 -49 25 -23 35 18 8 63 8 70 1z m105 -21 c-2 -22 -9 -29
-30 -31 -25 -3 -28 0 -28 27 0 28 3 31 31 31 27 0 30 -3 27 -27z m289 11 c8
-21 -13 -34 -54 -34 -25 0 -33 4 -33 18 0 26 9 32 47 32 22 0 36 -6 40 -16z
m263 7 c0 -32 -14 -41 -61 -41 -42 0 -49 3 -49 19 0 14 8 21 28 24 52 8 82 7
82 -2z m127 -7 c8 -22 -5 -31 -54 -37 -42 -5 -43 -4 -43 24 0 28 2 29 45 29
32 0 47 -5 52 -16z m143 -3 c0 -20 -25 -31 -72 -31 -23 0 -28 4 -28 25 0 23 3
25 50 25 42 0 50 -3 50 -19z m1443 5 c8 -20 -2 -26 -40 -26 -26 0 -33 4 -33
20 0 16 7 20 34 20 20 0 36 -6 39 -14z m-4440 -3 c-7 -2 -19 -2 -25 0 -7 3 -2
5 12 5 14 0 19 -2 13 -5z m4532 -4 c10 -15 -1 -23 -20 -15 -9 3 -13 10 -10 16
8 13 22 13 30 -1z m-4545 -13 c0 -3 -4 -8 -10 -11 -5 -3 -10 -1 -10 4 0 6 5
11 10 11 6 0 10 -2 10 -4z m-514 -68 c-9 -50 -59 -178 -69 -178 -5 0 -6 8 -1
18 4 9 21 56 38 104 33 92 43 110 32 56z m2659 3 c569 10 2579 -2 2592 -14 3
-4 -11 -8 -33 -9 -185 -8 -2785 -11 -2829 -2 l-40 7 35 13 c19 7 42 10 50 7 8
-3 110 -4 225 -2z m-370 -16 c0 -6 -96 -11 -262 -13 -240 -2 -277 1 -256 21
11 12 518 3 518 -8z m5856 -302 c59 -65 55 2 56 -998 0 -506 -3 -897 -7 -870
-4 28 -11 436 -16 908 -6 696 -10 859 -21 868 -7 6 -13 17 -13 23 0 7 -11 23
-24 35 l-25 23 -503 -6 c-277 -4 -536 -9 -575 -10 -40 -2 -73 0 -73 5 0 7 41
29 80 42 8 3 258 6 556 6 l540 1 25 -27z m-679 -107 c74 -11 74 -11 59 -29 -8
-11 -12 -250 -15 -912 -3 -644 -7 -900 -15 -908 -8 -8 -11 224 -11 885 l0 897
-27 20 c-25 20 -36 21 -252 19 l-225 -3 -9 -42 c-4 -24 -3 -189 4 -380 16
-458 17 -623 8 -788 -4 -77 -11 -235 -15 -351 -7 -207 -6 -212 15 -233 11 -11
20 -24 19 -28 -7 -20 85 -31 291 -37 123 -3 281 -12 350 -20 357 -43 415 -48
448 -43 28 5 34 4 24 -6 -13 -13 -25 -13 -321 -5 -219 7 -468 22 -590 38 -41
5 -108 12 -147 15 -67 6 -75 10 -103 42 l-31 35 6 181 c11 284 11 942 1 1267
l-9 295 27 53 27 54 214 -3 c117 -2 242 -7 277 -13z m616 -18 c3 -17 -14 -18
-252 -18 -155 0 -256 4 -256 10 0 25 45 29 270 27 215 -2 235 -4 238 -19z m33
-445 c6 -248 5 -371 -2 -379 -8 -10 -67 -11 -257 -7 -237 5 -248 6 -267 27
-19 20 -20 35 -20 353 1 183 4 335 7 339 4 3 122 9 262 12 220 4 256 7 256 20
0 9 3 12 7 9 3 -4 10 -172 14 -374z m-7609 39 c8 -280 3 -2111 -6 -2120 -4 -3
-12 0 -19 7 -9 9 -13 271 -15 1182 -2 644 -1 1178 3 1186 4 13 8 14 18 4 8 -8
14 -89 19 -259z m1284 258 l54 0 -1 -92 c-1 -89 -14 -236 -18 -192 -1 15 -10
23 -30 27 -45 9 -83 57 -46 57 8 0 15 9 15 20 0 11 -4 20 -10 20 -5 0 -10 9
-10 20 0 11 -4 20 -10 20 -5 0 -10 9 -10 19 0 21 -17 30 -58 32 -23 1 -22 3 8
8 35 7 34 7 -17 14 -35 5 -53 12 -53 22 0 14 92 36 118 29 8 -2 38 -4 68 -4z
m733 -14 c-43 -29 -92 -99 -114 -165 -31 -86 -69 -161 -82 -161 -38 0 22 315
65 340 9 5 51 10 92 10 l75 0 -36 -24z m1450 18 l31 -7 -37 -27 c-21 -16 -41
-26 -45 -24 -5 3 -8 1 -8 -3 0 -5 -12 -22 -27 -39 -47 -52 -74 -87 -109 -141
-39 -59 -64 -69 -64 -25 0 32 33 135 54 166 7 12 18 38 25 58 8 25 19 38 34
41 36 7 112 7 146 1z m730 -121 c32 -183 33 -192 26 -214 -4 -10 -11 -17 -16
-13 -17 10 -55 98 -68 156 -11 51 -63 148 -79 148 -4 0 -20 11 -37 25 l-30 24
91 1 91 0 22 -127z m644 115 c-2 -5 1 -8 6 -8 6 0 11 -9 11 -20 0 -13 -7 -20
-20 -20 -15 0 -20 -7 -20 -25 0 -16 -5 -23 -13 -19 -13 5 -37 -47 -37 -80 0
-10 -6 -24 -12 -31 -35 -39 -37 -42 -25 -54 9 -9 8 -11 -5 -6 -25 10 -30 30
-35 152 l-6 111 29 4 c53 6 132 3 127 -4z m-3148 -18 c25 -10 75 -75 75 -99 0
-11 -11 -12 -52 -7 -29 3 -77 6 -105 6 -46 0 -53 3 -53 20 0 28 -14 25 -44
-11 -36 -42 -39 -59 -34 -211 3 -122 6 -138 32 -189 33 -67 106 -153 147 -174
18 -10 58 -15 112 -15 64 0 86 -4 90 -14 9 -23 -2 -26 -102 -26 -119 0 -159
17 -224 91 -94 106 -127 211 -127 399 0 94 14 223 27 243 7 12 221 1 258 -13z
m2918 -40 c5 -30 6 -125 4 -210 -7 -207 -33 -293 -120 -387 -59 -65 -82 -73
-213 -80 -111 -6 -116 -5 -112 13 3 16 13 19 63 21 125 5 144 12 197 61 55 51
87 108 113 197 14 48 17 84 12 182 -5 131 -20 177 -64 198 -33 17 -53 36 -53
52 0 11 16 13 82 11 l83 -3 8 -55z m875 -606 c3 -764 -7 -1317 -24 -1334 -9
-9 -14 34 -19 167 -9 205 0 1807 10 1823 4 6 12 9 18 7 9 -3 13 -174 15 -663z
m-4910 -321 c-3 -738 -6 -983 -15 -998 -10 -16 -12 59 -13 355 0 206 -3 655
-7 998 l-6 622 22 0 23 0 -4 -977z m227 870 c9 -120 -2 -1813 -12 -1882 -18
-135 -23 77 -22 987 1 819 3 1002 14 1002 10 0 15 -29 20 -107z m1970 16 c29
-57 48 -110 52 -142 7 -64 4 -61 -81 72 -76 120 -81 140 -33 132 4 0 7 6 7 14
0 28 10 15 55 -76z m1643 75 c36 -25 29 -52 -15 -59 -21 -4 -57 -12 -80 -19
-24 -7 -43 -9 -43 -4 0 14 48 86 62 91 25 10 54 7 76 -9z m838 -962 c1 -526
-1 -969 -3 -985 -7 -41 -20 -24 -27 35 -9 82 -11 1901 -2 1916 29 47 31 -19
32 -966z m2854 968 c24 -8 24 -8 -7 -9 -17 -1 -35 4 -38 9 -7 11 9 11 45 0z
m-2039 -106 c3 -54 3 -581 0 -1171 -5 -830 -9 -1075 -18 -1084 -7 -7 -15 -10
-18 -7 -8 8 -7 2332 1 2353 15 39 29 3 35 -91z m778 39 c58 -68 51 -86 -8 -23
-48 51 -51 53 -91 47 -23 -3 -53 -15 -66 -28 -48 -45 -69 -145 -52 -249 l8
-45 -19 22 c-25 30 -35 109 -21 164 13 49 59 120 92 144 13 8 43 15 69 15 44
0 50 -3 88 -47z m-1022 -1167 c4 -1061 3 -1139 -23 -1113 -10 10 -17 1913 -8
2117 17 385 26 78 31 -1004z m-5592 2 c0 -608 -3 -1110 -7 -1114 -5 -4 -11 -4
-15 0 -10 10 -17 1984 -8 2145 6 105 9 122 19 101 8 -18 11 -333 11 -1132z
m6553 1022 c-6 -75 -13 -94 -28 -70 -14 22 -12 114 2 128 25 25 31 11 26 -58z
m1332 0 c0 -16 0 -33 0 -37 0 -5 -11 -9 -25 -11 -23 -3 -25 0 -25 37 0 37 2
41 25 41 21 0 25 -5 25 -30z m-6203 -22 c-3 -8 -6 -5 -6 6 -1 11 2 17 5 13 3
-3 4 -12 1 -19z m890 -198 c32 -63 72 -144 87 -180 16 -36 40 -90 53 -120 14
-30 29 -66 34 -80 8 -22 8 -23 -4 -8 -8 10 -18 14 -22 10 -5 -4 -5 -2 -1 5 3
6 -4 23 -17 37 -13 14 -36 58 -52 98 -15 40 -56 134 -91 209 -59 125 -78 177
-55 154 5 -6 36 -62 68 -125z m1358 -9 c8 -76 1 -103 -19 -75 -11 14 -14 8
-19 -45 -8 -70 -25 -109 -108 -233 -66 -100 -124 -171 -218 -268 -35 -36 -110
-121 -167 -190 -119 -143 -181 -201 -195 -179 -6 10 6 27 46 62 31 27 83 83
117 125 34 43 84 102 112 132 28 30 72 82 97 115 26 33 81 103 124 155 103
128 172 264 180 357 4 37 11 91 17 118 10 45 12 48 19 23 4 -14 10 -58 14 -97z
m2744 93 c2 -2 1 -10 -3 -19 -5 -13 -15 -16 -44 -11 -74 10 -102 19 -114 33
-11 14 -3 15 72 8 47 -4 87 -9 89 -11z m-7960 -12 c81 -9 92 -28 19 -36 -29
-4 -125 -15 -213 -25 -142 -17 -169 -17 -240 -5 -44 7 -125 20 -180 29 -118
19 -175 33 -175 44 0 9 692 3 789 -7z m4326 -31 c-8 -17 -13 -31 -10 -31 3 0
-38 -85 -90 -190 -52 -104 -98 -190 -101 -190 -18 0 18 94 98 254 49 100 95
187 101 195 18 22 20 -4 2 -38z m-1352 -63 c-2 -55 2 -77 16 -97 10 -14 30
-51 44 -82 24 -52 65 -118 189 -302 76 -113 98 -143 143 -196 23 -26 52 -65
65 -87 13 -21 45 -68 71 -104 26 -36 74 -119 107 -185 33 -66 85 -160 116
-210 31 -49 62 -101 68 -115 16 -33 66 -98 103 -133 19 -18 23 -25 10 -18 -60
29 -236 269 -326 446 -97 187 -200 347 -310 476 -62 73 -229 318 -264 389 -18
36 -36 81 -40 102 -4 20 -18 46 -32 58 -22 19 -25 28 -20 63 2 23 10 55 16 71
11 28 13 29 29 12 13 -13 17 -32 15 -88z m-2276 -10 c28 -27 30 -42 3 -28 -11
6 -24 8 -29 5 -5 -3 -11 -1 -13 5 -2 6 -14 4 -31 -5 -23 -12 -87 -13 -395 -9
-425 6 -484 2 -518 -31 -15 -15 -24 -19 -24 -11 0 22 68 76 98 77 205 10 433
16 636 17 244 2 250 1 273 -20z m-1445 -135 c7 -130 7 -718 -1 -768 -7 -48 -7
-47 -15 45 -4 52 -8 244 -9 425 -1 182 -6 338 -11 348 -6 13 -4 17 12 17 18 0
21 -8 24 -67z m488 -115 c0 -84 -4 -146 -8 -138 -8 15 -4 290 4 290 2 0 4 -69
4 -152z m7993 132 c89 -33 125 -90 134 -206 9 -112 -27 -204 -100 -258 -37
-27 -156 -36 -176 -12 -22 26 -9 51 24 49 46 -4 131 16 158 37 31 25 54 148
38 206 -23 85 -80 134 -154 134 -38 0 -47 4 -53 22 -4 15 -1 25 12 35 25 18
54 16 117 -7z m-8625 -83 c3 -66 3 -67 -24 -67 l-26 0 7 63 c8 70 12 80 28 74
7 -2 13 -31 15 -70z m8333 -53 c-6 -32 -11 -80 -12 -108 l-1 -51 -9 45 c-12
59 14 226 28 183 3 -7 -1 -38 -6 -69z m255 -38 c14 -11 19 -26 19 -59 0 -52
-17 -77 -55 -77 -38 0 -64 32 -62 77 3 63 52 92 98 59z m-7169 -42 c6 -19 -76
-24 -331 -22 l-241 1 145 9 c80 4 197 12 260 17 139 10 162 9 167 -5z m171
-445 c-3 -458 -4 -461 -25 -479 -32 -25 -139 -38 -413 -49 -410 -17 -464 -18
-485 -10 -14 5 -5 8 30 8 124 2 658 32 735 41 52 7 95 18 110 29 l25 18 3 452
c1 322 5 451 13 451 8 0 10 -128 7 -461z m-1597 246 c-1 -333 -14 -750 -22
-729 -11 31 -22 648 -14 800 6 111 10 135 22 132 12 -3 15 -34 14 -203z m9403
160 c43 -21 113 -91 137 -137 10 -21 19 -54 18 -75 -1 -33 -2 -35 -8 -13 -28
91 -94 163 -178 193 -64 23 -98 21 -158 -7 -58 -26 -104 -75 -142 -149 -53
-104 -41 -320 24 -439 50 -91 145 -154 220 -145 65 7 145 64 172 122 40 85 52
212 29 299 -15 58 -37 41 -30 -25 11 -118 -81 -279 -159 -279 -61 0 -131 43
-166 102 -44 75 -56 121 -50 189 13 148 109 242 221 217 62 -14 126 -58 163
-113 18 -28 37 -55 41 -60 17 -21 32 -107 32 -187 0 -102 -24 -159 -97 -235
-38 -39 -64 -55 -104 -67 -71 -22 -85 -20 -154 12 -91 44 -154 122 -195 242
-34 98 -33 270 1 361 39 103 104 171 196 205 45 17 139 11 187 -11z m-8765
-403 c1 -173 -2 -261 -9 -257 -6 4 -10 108 -9 283 0 164 4 269 9 257 5 -11 9
-138 9 -283z m731 214 c0 -11 -23 -14 -112 -14 -62 -1 -150 -4 -195 -8 -89 -7
-181 2 -167 16 11 11 86 16 302 18 141 2 172 0 172 -12z m8187 -108 c-3 -7 -5
-2 -5 12 0 14 2 19 5 13 2 -7 2 -19 0 -25z m-8137 -52 c0 -8 -8 -17 -17 -20
-10 -4 -156 -10 -326 -13 -301 -6 -309 -6 -305 13 3 18 17 19 203 24 416 11
445 11 445 -4z m209 -143 c-1 -71 -4 -112 -8 -93 -6 37 -3 220 5 220 2 0 3
-57 3 -127z m-471 -24 l57 -2 -45 -8 c-64 -11 -200 -11 -200 0 0 10 92 20 118
14 8 -2 39 -4 70 -4z m4146 -162 c27 -43 46 -81 43 -83 -7 -7 -117 177 -117
195 0 8 22 -25 74 -112z m-3922 -15 c10 -10 10 -14 -1 -21 -17 -11 -176 -20
-416 -23 -173 -3 -190 -1 -193 14 -5 25 15 27 253 36 289 10 342 9 357 -6z
m4014 -109 c19 -25 18 -73 -1 -73 -8 0 -15 -5 -15 -11 0 -24 -89 -123 -145
-162 l-30 -21 25 29 c14 16 42 45 62 63 60 55 81 96 75 148 -5 47 6 57 29 27z
m-959 -8 c3 -9 4 -17 2 -19 -2 -2 -76 -16 -164 -30 -176 -29 -433 -95 -494
-125 -21 -11 -52 -32 -69 -46 -33 -28 -52 -32 -52 -12 0 19 48 61 97 86 77 39
554 157 646 160 16 1 30 -5 34 -14z m1176 0 c238 -35 402 -78 522 -135 44 -21
89 -48 99 -59 16 -18 17 -22 3 -35 -13 -13 -17 -13 -33 6 -53 59 -190 111
-389 148 -228 41 -328 65 -333 78 -5 15 6 15 131 -3z m-2742 -15 c12 0 19 -7
19 -20 0 -15 7 -20 29 -20 16 0 31 6 34 13 6 18 394 17 406 -1 6 -10 128 -28
226 -32 l20 -1 -20 -9 c-11 -5 -188 -9 -392 -9 l-373 -1 0 46 c0 38 3 45 16
40 9 -3 24 -6 35 -6z m5862 -17 c-13 -2 -35 -2 -50 0 -16 2 -5 4 22 4 28 0 40
-2 28 -4z m115 -10 c-15 -2 -42 -2 -60 0 -18 2 -6 4 27 4 33 0 48 -2 33 -4z
m-2465 -37 c77 -3 141 -6 143 -9 2 -2 -55 -7 -127 -10 -118 -6 -136 -4 -173
13 -37 18 -38 19 -11 15 17 -3 92 -7 168 -9z m1282 -5 c4 -8 -21 -11 -79 -11
-47 0 -86 4 -86 8 0 12 157 15 165 3z m-5235 -60 c5 -11 10 -31 10 -45 l0 -26
-95 0 -95 0 0 38 c0 21 3 42 7 45 3 4 41 7 84 7 67 0 80 -3 89 -19z m1162 5
c16 -7 15 -11 -7 -44 l-25 -37 -242 3 c-134 1 -303 2 -375 2 l-133 0 0 40 0
39 58 4 c103 7 707 1 724 -7z m3516 -1 c6 -2 12 -20 12 -39 l0 -34 -382 -4
c-211 -2 -388 -2 -393 -1 -6 2 -22 22 -36 46 l-25 42 405 -2 c223 -2 412 -5
419 -8z m572 -30 l0 -45 -98 0 -98 0 4 40 4 39 72 4 c39 1 81 4 94 5 20 2 22
-2 22 -43z m-5830 -5 l0 -40 -121 0 -121 0 33 39 34 39 88 1 87 1 0 -40z
m6566 34 c48 -6 52 -9 62 -40 6 -19 6 -36 1 -39 -4 -3 -96 -3 -204 1 -210 8
-204 5 -189 62 6 21 10 22 143 22 75 0 159 -3 187 -6z m204 -10 c103 -16 105
-50 2 -39 -83 9 -92 13 -92 37 0 16 5 19 23 15 12 -4 42 -9 67 -13z m-7115
-84 c-3 -5 -24 -10 -46 -10 -24 0 -38 4 -34 10 3 6 24 10 46 10 24 0 38 -4 34
-10z m933 -63 l3 -57 -96 0 -95 0 0 55 0 54 78 4 c42 2 84 3 92 2 11 0 16 -15
18 -58z m4323 53 l369 0 0 -49 0 -48 -111 -8 c-159 -10 -641 -3 -644 10 -2 5
-6 32 -10 59 -6 43 -5 48 10 42 9 -3 183 -6 386 -6z m919 -47 l0 -53 -103 0
-103 0 4 43 c2 23 5 47 6 52 2 6 45 10 100 11 l96 1 0 -54z m-5832 -5 l-3 -53
-760 3 c-442 1 -773 6 -790 12 -21 6 36 9 185 9 223 -1 573 14 744 31 54 6
142 10 195 10 75 0 104 4 131 19 29 15 59 19 168 20 l133 1 -3 -52z m1692 8
c0 -25 -6 -48 -14 -55 -9 -8 -114 -11 -367 -9 l-354 3 -3 53 -3 52 370 0 371
0 0 -44z m1084 -5 c20 -27 36 -51 36 -54 0 -3 -164 -5 -365 -4 -321 2 -365 4
-365 17 0 13 40 21 218 43 460 59 431 59 476 -2z m1056 24 c113 -14 224 -28
248 -31 37 -5 42 -8 42 -31 l0 -26 -107 6 c-58 4 -212 7 -342 7 l-235 0 49 50
c60 61 55 61 345 25z m3001 9 c145 -15 489 -70 498 -79 2 -3 -119 -5 -271 -5
-151 0 -397 -3 -546 -7 l-272 -6 0 56 0 57 224 0 c135 0 280 -6 367 -16z m844
-3 c48 -7 44 -26 -5 -25 -55 1 -90 13 -90 30 0 13 6 15 28 9 15 -5 45 -11 67
-14z m-5898 -53 c-3 -8 -6 -5 -6 6 -1 11 2 17 5 13 3 -3 4 -12 1 -19z m-1173
-66 c3 -5 -11 -32 -31 -60 l-36 -52 -68 0 -69 0 0 53 c0 30 3 57 7 60 9 10
191 8 197 -1z m1097 -44 c12 -29 24 -55 26 -58 2 -3 -188 -4 -422 -2 -295 2
-425 6 -425 13 0 14 38 70 58 87 12 9 103 12 378 12 l361 0 24 -52z m1207 3
c34 -23 62 -46 62 -52 0 -6 -102 -9 -282 -7 -156 1 -359 -2 -451 -6 l-168 -8
6 38 c3 22 8 49 11 62 l5 23 377 -4 378 -4 62 -42z m1206 40 c2 -3 6 -27 10
-52 l7 -47 -288 3 c-158 1 -364 3 -458 4 l-170 2 50 26 c141 74 124 72 503 71
188 0 344 -4 346 -7z m1181 -42 c4 -27 5 -52 3 -55 -8 -7 -818 -11 -818 -4 0
12 31 84 42 98 8 9 98 12 388 12 l378 0 7 -51z m540 -4 l0 -50 -55 -8 c-30 -4
-74 -5 -97 -2 -38 6 -43 10 -58 50 -10 24 -14 48 -10 55 4 7 43 10 113 8 l107
-3 0 -50z m-5352 -124 c-17 -14 -39 -38 -48 -53 -10 -16 -21 -28 -25 -28 -5 0
-10 25 -12 55 l-3 54 50 3 c68 4 73 -1 38 -31z m5345 -23 c-2 -48 -7 -64 -19
-66 -18 -3 -143 111 -132 121 3 4 40 7 80 7 l74 0 -3 -62z m-5837 -4 l-3 -57
-220 6 c-172 4 -223 8 -236 20 -9 8 -29 17 -44 21 -15 3 -33 12 -40 19 -7 7
-22 17 -33 22 -36 16 48 22 320 24 l260 1 -4 -56z m5202 49 c-29 -2 -77 -2
-105 0 -29 2 -6 3 52 3 58 0 81 -1 53 -3z m1177 1 c-59 -8 -140 -8 -140 -1 0
4 37 6 83 6 45 -1 71 -3 57 -5z"/>
<path d="M5064 7688 c-3 -4 31 -8 75 -8 45 0 81 3 81 8 0 9 -150 10 -156 0z"/>
<path d="M4813 7683 c15 -2 37 -2 50 0 12 2 0 4 -28 4 -27 0 -38 -2 -22 -4z"/>
<path d="M4943 7683 c15 -2 39 -2 55 0 15 2 2 4 -28 4 -30 0 -43 -2 -27 -4z"/>
<path d="M5625 7500 c-115 -3 -205 -8 -199 -12 18 -12 692 -22 849 -13 138 7
139 8 95 21 -47 14 -295 16 -745 4z"/>
<path d="M5063 7493 c15 -2 37 -2 50 0 12 2 0 4 -28 4 -27 0 -38 -2 -22 -4z"/>
<path d="M8047 7893 c-4 -3 -7 -11 -7 -17 0 -6 5 -5 12 2 6 6 9 14 7 17 -3 3
-9 2 -12 -2z"/>
<path d="M7986 7753 c-6 -14 -5 -15 5 -6 7 7 10 15 7 18 -3 3 -9 -2 -12 -12z"/>
<path d="M2010 7480 c0 -5 7 -7 15 -4 8 4 15 8 15 10 0 2 -7 4 -15 4 -8 0 -15
-4 -15 -10z"/>
<path d="M1966 7131 c-14 -5 -16 -10 -7 -15 15 -9 41 -1 41 14 0 11 -7 12 -34
1z"/>
<path d="M1098 7583 c7 -3 16 -2 19 1 4 3 -2 6 -13 5 -11 0 -14 -3 -6 -6z"/>
<path d="M1190 7285 c0 -8 5 -15 10 -15 6 0 10 7 10 15 0 8 -4 15 -10 15 -5 0
-10 -7 -10 -15z"/>
<path d="M1260 7284 c0 -8 5 -12 10 -9 6 4 8 11 5 16 -9 14 -15 11 -15 -7z"/>
<path d="M7938 7223 c7 -3 16 -2 19 1 4 3 -2 6 -13 5 -11 0 -14 -3 -6 -6z"/>
<path d="M7987 7143 c-4 -3 -7 -11 -7 -17 0 -6 5 -5 12 2 6 6 9 14 7 17 -3 3
-9 2 -12 -2z"/>
<path d="M7620 6939 c0 -5 5 -7 10 -4 6 3 10 8 10 11 0 2 -4 4 -10 4 -5 0 -10
-5 -10 -11z"/>
<path d="M7870 6799 c0 -5 5 -7 10 -4 6 3 10 8 10 11 0 2 -4 4 -10 4 -5 0 -10
-5 -10 -11z"/>
<path d="M4635 6446 c-41 -18 -83 -69 -91 -111 -8 -43 10 -96 43 -129 36 -37
118 -37 161 -1 37 31 62 83 62 128 0 40 -35 89 -81 112 -34 18 -55 18 -94 1z
m80 -66 c10 -16 -14 -50 -35 -50 -19 0 -36 32 -25 50 8 13 52 13 60 0z"/>
<path d="M5404 6440 c-30 -12 -62 -56 -70 -96 -5 -25 0 -46 17 -81 38 -75 96
-104 161 -81 38 13 86 71 94 112 8 46 -27 121 -67 141 -30 16 -101 19 -135 5z
m81 -75 c0 -23 -5 -30 -19 -30 -24 0 -41 27 -33 49 4 11 15 16 29 14 18 -2 23
-9 23 -33z"/>
<path d="M4990 6113 c-48 -6 -60 -19 -60 -63 0 -30 7 -44 31 -67 63 -57 69
-63 69 -79 0 -46 -40 -76 -114 -84 -56 -6 -66 -20 -37 -49 30 -30 107 -29 154
3 l35 24 48 -24 c26 -13 58 -24 70 -24 22 0 84 44 84 60 0 4 -20 10 -45 13
-24 4 -60 13 -80 21 -31 13 -35 19 -35 51 0 32 7 44 49 81 71 64 79 108 25
132 -24 12 -120 14 -194 5z m120 -13 c0 -5 -19 -10 -42 -10 -32 0 -39 3 -28
10 20 13 70 13 70 0z"/>
<path d="M277 5828 c-4 -293 -7 -723 -7 -955 l0 -422 22 -12 c17 -9 79 -10
243 -4 121 4 677 7 1235 5 558 -1 1012 1 1008 5 -7 7 -835 15 -1883 18 -291 1
-536 6 -542 10 -10 6 -13 198 -13 903 l0 894 33 1 c133 2 455 -17 596 -36 34
-5 311 -22 736 -45 105 -6 244 -17 310 -25 102 -12 264 -24 542 -39 33 -1 68
1 77 6 10 6 16 5 16 -1 0 -5 13 -9 28 -9 15 1 37 -4 47 -9 11 -5 34 -9 50 -8
17 0 35 -3 42 -8 6 -4 61 -11 122 -14 106 -6 111 -7 111 -28 0 -39 -29 -55
-80 -43 -25 5 -83 14 -130 19 -47 5 -139 17 -205 25 -66 8 -185 19 -265 24
-80 6 -185 14 -235 20 -49 5 -207 16 -350 25 -248 14 -442 28 -820 60 -167 14
-419 32 -523 37 l-52 3 -2 -35 c-6 -139 -3 -1661 3 -1671 6 -11 264 -14 1271
-17 1269 -3 1416 0 1419 32 1 6 5 -2 9 -19 4 -16 8 340 9 792 l1 822 -33 5
c-66 11 -299 36 -517 56 -124 11 -290 27 -370 35 -145 14 -364 29 -580 40
-140 7 -442 31 -645 50 -199 20 -546 45 -616 45 l-56 0 -6 -532z m2281 127 c3
-28 -13 -49 -32 -42 -10 4 -16 18 -16 37 0 27 3 31 23 28 13 -2 23 -11 25 -23z
m215 0 c229 -24 227 -24 227 -46 0 -27 -20 -32 -82 -20 -29 6 -105 13 -168 16
-118 6 -149 17 -137 49 4 9 9 16 12 16 3 0 70 -7 148 -15z m-1232 -143 l76
-79 74 73 c70 68 78 72 131 79 92 12 133 -12 174 -100 26 -55 30 -100 12 -142
-29 -68 -343 -423 -374 -423 -13 0 -260 251 -338 344 -93 111 -102 160 -45
252 33 54 73 74 149 74 l65 0 76 -78z m1307 31 c45 -3 82 -10 82 -14 0 -16
-67 -22 -227 -20 -83 1 -83 1 -83 27 l0 27 73 -7 c39 -3 109 -9 155 -13z
m-303 -194 c2 -96 1 -228 -4 -294 l-8 -120 -2 155 c-2 133 -2 276 -1 409 0 19
2 32 5 29 3 -3 7 -83 10 -179z m302 127 c4 -3 -7 -6 -23 -6 -16 0 -66 -3 -111
-7 -77 -5 -97 0 -77 20 8 8 203 2 211 -7z m-31 -41 c15 -3 21 -12 20 -27 -1
-20 -7 -23 -54 -26 -39 -2 -55 -8 -59 -20 -9 -25 -24 -32 -44 -21 -10 5 -25 6
-33 3 -13 -5 -16 2 -16 35 0 37 3 41 24 41 13 0 26 7 29 15 6 14 63 14 133 0z
m114 -173 c67 -6 85 -10 88 -23 2 -9 -3 -18 -10 -20 -7 -2 -96 -2 -198 1 -182
5 -185 5 -188 28 -3 22 -2 22 110 21 62 -1 151 -4 198 -7z m19 -100 c40 -9 48
-23 26 -46 -15 -14 -37 -16 -173 -10 -87 3 -163 7 -169 9 -7 3 -13 15 -13 29
0 13 6 27 13 30 16 7 273 -3 316 -12z m-27 -142 c82 0 108 -12 108 -52 0 -20
-3 -20 -147 -14 -233 10 -260 14 -267 39 -9 37 2 40 118 33 61 -3 146 -6 188
-6z m86 -104 c8 -8 12 -21 9 -29 -4 -12 -27 -14 -124 -10 -235 7 -283 13 -283
32 0 10 3 21 8 26 4 4 90 5 192 1 140 -4 188 -9 198 -20z m0 -133 l-3 -28
-195 0 c-183 0 -195 1 -198 19 -2 10 2 22 10 27 7 5 98 9 201 9 l188 0 -3 -27z
m-304 -79 c22 -9 20 -51 -3 -64 -25 -13 -81 -2 -82 16 -1 8 -2 20 -3 26 -1 11
18 18 66 27 3 0 13 -2 22 -5z m-1746 -108 c2 -10 -2 -22 -10 -27 -16 -10 -217
-12 -346 -3 -88 7 -92 8 -92 31 l0 23 222 -2 c209 -3 223 -4 226 -22z m717
-16 c349 -14 416 -20 422 -37 12 -31 -13 -34 -228 -24 -118 6 -332 13 -477 17
-144 4 -265 11 -268 16 -3 5 -3 15 0 23 7 18 196 20 551 5z m-797 -77 c53 -5
62 -9 62 -26 0 -20 -4 -20 -212 -14 -119 3 -215 10 -221 16 -7 7 -6 16 4 27
12 15 30 16 159 10 80 -3 173 -9 208 -13z m1055 -80 c157 -6 157 -6 157 -30
l0 -24 -447 6 c-247 4 -458 8 -470 11 -23 4 -31 32 -15 49 7 7 467 1 775 -12z
m-998 -27 c12 -8 16 -19 11 -31 -6 -16 -22 -17 -214 -13 -115 2 -213 8 -220
12 -15 9 -5 34 16 39 10 3 101 5 203 6 141 1 190 -2 204 -13z"/>
<path d="M1165 4390 l-90 -6 95 -1 c52 -1 118 2 145 7 l50 7 -55 0 c-30 -1
-95 -4 -145 -7z"/>
<path d="M9015 6215 c-15 -6 -311 -44 -470 -60 -77 -8 -241 -29 -365 -45 -847
-115 -968 -134 -995 -161 -19 -19 -20 -32 -18 -292 1 -150 5 -330 8 -402 l7
-130 146 -2 c81 -2 181 -6 222 -10 l75 -7 -100 -7 c-55 -4 -154 -7 -221 -8
l-121 -1 -6 -67 c-4 -38 -7 -261 -7 -496 0 -414 1 -430 21 -478 l21 -49 697
-1 c383 -1 806 -1 941 0 l245 0 37 47 c23 30 38 62 42 88 3 23 5 481 6 1018 1
1048 1 1030 -48 1057 -20 10 -95 14 -117 6z m-58 -164 c53 -27 87 -66 120
-136 26 -55 28 -70 28 -175 0 -134 -16 -178 -87 -256 -106 -115 -233 -127
-330 -30 -48 48 -95 155 -105 237 -8 66 13 166 50 240 34 65 94 118 161 139
43 13 117 5 163 -19z m-1062 -126 c28 -3 108 -10 179 -15 120 -8 171 -21 135
-35 -24 -9 -390 12 -401 23 -16 16 -1 44 19 38 10 -2 41 -7 68 -11z m553 -673
l2 -662 -26 0 c-22 0 -25 3 -20 23 3 12 9 311 12 665 5 455 10 642 18 639 8
-3 12 -200 14 -665z m-127 541 c1 -65 2 -262 4 -438 1 -176 3 -417 5 -535 2
-202 1 -215 -16 -215 -17 0 -18 29 -22 637 -2 351 -2 645 2 653 3 8 10 15 16
15 6 0 10 -44 11 -117z m-753 92 c53 -22 121 -92 147 -150 28 -62 36 -108 36
-192 0 -54 -6 -78 -32 -131 -57 -116 -134 -172 -235 -172 -82 0 -188 80 -240
182 -24 46 -27 65 -27 148 -1 81 3 103 25 151 67 147 202 215 326 164z m322
-354 c0 -274 2 -331 14 -341 10 -8 33 -9 70 -5 48 6 56 5 56 -9 0 -15 -12 -16
-92 -14 l-93 3 -3 314 c-4 345 -1 381 28 381 19 0 20 -9 20 -329z m1178 -262
c4 -21 -44 -28 -253 -36 -88 -3 -168 -10 -178 -15 -13 -7 -20 -3 -29 17 -6 14
-9 27 -6 30 6 6 348 23 418 21 33 -1 46 -5 48 -17z m38 -120 c3 -6 2 -15 -2
-19 -9 -8 -177 -23 -396 -35 -101 -5 -108 -4 -108 13 0 25 53 32 290 42 96 3
183 7 192 8 9 1 20 -3 24 -9z m-1081 -83 c11 -8 16 -19 12 -30 -11 -28 -167
-20 -167 10 0 7 8 18 18 23 25 15 115 13 137 -3z m1050 -45 c-11 -5 -90 -14
-175 -20 -179 -13 -246 -20 -277 -28 -19 -4 -23 -1 -23 20 0 19 6 27 23 30 41
8 472 6 452 -2z m-1028 -91 l173 0 0 -26 0 -25 -395 3 -395 3 0 22 c0 21 5 22
103 26 56 2 156 3 221 1 66 -2 197 -4 293 -4z m-729 -15 c12 -1 22 3 22 8 0 5
7 4 15 -3 8 -7 15 -23 15 -35 0 -27 -24 -35 -80 -28 -36 5 -40 9 -40 33 0 28
16 43 35 31 6 -3 20 -6 33 -6z m1600 -34 c-90 -13 -62 -23 56 -20 115 4 119 3
127 -18 l8 -23 -181 0 c-242 0 -362 20 -317 53 12 9 71 13 185 14 98 1 149 -2
122 -6z m-1583 -83 c4 4 4 -4 1 -18 -6 -23 -6 -23 7 -7 21 25 37 21 37 -9 0
-21 -4 -25 -18 -22 -10 3 -26 0 -35 -7 -23 -17 -65 -7 -73 17 -9 30 22 59 51
48 13 -5 26 -6 30 -2z m1322 -13 c-11 -8 -17 -23 -15 -37 l3 -23 221 4 c203 3
222 2 228 -14 3 -10 4 -21 0 -24 -3 -3 -114 -6 -247 -6 l-242 0 3 45 c3 46 22
70 51 70 13 -1 13 -3 -2 -15z m-684 -14 c25 -25 -23 -31 -248 -32 -126 0 -243
-1 -260 -2 -26 -2 -30 2 -33 26 l-3 28 266 -5 c182 -3 271 -8 278 -15z m-659
-83 c-6 -9 -3 -9 9 1 25 20 47 6 47 -30 0 -29 -2 -31 -29 -27 -18 3 -27 0 -25
-6 2 -6 -10 -11 -29 -12 -30 -1 -33 2 -35 29 -1 16 3 36 9 43 15 18 63 19 53
2z m966 -8 c0 -6 -11 -15 -24 -20 -13 -5 -29 -17 -34 -26 -5 -9 -14 -14 -21
-10 -15 10 -14 53 2 59 23 10 77 7 77 -3z m-772 -32 c3 -26 1 -28 -32 -28 -33
0 -36 2 -36 31 0 28 2 30 33 27 27 -2 33 -8 35 -30z m482 6 c0 -21 -3 -22
-192 -29 -106 -3 -206 -5 -221 -3 -33 3 -52 22 -43 43 5 14 36 15 231 13 224
-2 225 -2 225 -24z m1100 -46 c0 -21 -4 -23 -62 -23 -120 -1 -303 -7 -345 -12
-39 -5 -43 -8 -43 -34 0 -17 7 -32 18 -38 11 -6 93 -6 217 -1 193 9 234 5 209
-20 -13 -13 -445 -24 -463 -12 -19 14 -28 126 -11 137 6 4 114 11 238 15 125
4 230 8 235 8 4 1 7 -8 7 -20z m-1718 -143 c-4 -118 -6 -123 -42 -121 -16 1
-32 5 -36 9 -4 4 -13 2 -20 -4 -7 -6 -18 -8 -24 -4 -17 10 -11 44 10 55 23 12
27 32 5 24 -10 -4 -15 0 -15 14 0 25 18 39 25 20 7 -17 85 -24 85 -8 0 10 -19
14 -52 12 -13 -1 -18 6 -18 26 -1 26 -1 26 -15 8 -8 -11 -17 -18 -19 -15 -4 4
-9 56 -7 72 1 4 29 7 64 5 l62 -3 -3 -90z m143 84 c12 -19 -4 -54 -32 -66 -40
-19 -43 -17 -43 32 0 45 0 45 34 45 19 0 38 -5 41 -11z m432 -14 c3 -9 2 -19
-2 -23 -3 -4 -97 -7 -208 -7 -202 0 -202 0 -205 23 l-3 22 206 0 c176 0 206
-2 212 -15z m-437 -119 c0 -39 -11 -56 -35 -56 -18 0 -25 7 -30 30 -8 39 0 50
36 50 24 0 29 -4 29 -24z m434 4 c26 -26 -16 -34 -205 -38 -202 -5 -213 -3
-201 41 5 20 10 20 200 14 111 -4 200 -11 206 -17z m1153 -16 c6 -18 -58 -24
-258 -24 -202 0 -199 1 -199 -55 0 -38 -18 -39 -25 -2 -12 62 -4 81 35 88 65
11 443 5 447 -7z m-1509 -161 c100 -14 21 -30 -183 -37 -66 -3 -129 -6 -140
-8 -15 -2 -21 3 -23 24 l-3 27 123 4 c120 3 138 2 226 -10z m1510 -52 l4 -24
-224 4 -223 4 -6 -42 c-10 -75 -33 -70 -42 9 -7 76 -7 76 283 74 l205 -1 3
-24z"/>
<path d="M8778 6000 c-90 -48 -148 -154 -148 -271 0 -92 68 -228 136 -269 94
-59 231 26 280 172 22 66 16 217 -10 268 -23 44 -63 88 -98 106 -38 20 -116
17 -160 -6z m102 -194 c32 -36 29 -74 -10 -109 -36 -32 -46 -31 -74 6 -24 33
-25 81 -1 107 24 27 57 25 85 -4z m85 -205 c-22 -44 -27 -38 -7 9 9 21 18 35
20 30 2 -5 -4 -22 -13 -39z"/>
<path d="M7418 5823 c-152 -44 -197 -307 -75 -440 81 -88 155 -103 238 -48
122 80 154 290 62 413 -26 35 -46 43 -36 15 3 -10 3 -15 -1 -11 -4 3 -9 14
-10 25 -7 44 -102 69 -178 46z m141 -62 c49 -25 61 -37 76 -73 9 -24 19 -68
22 -99 14 -145 -93 -272 -203 -245 -28 7 -140 116 -142 139 -1 6 -4 33 -8 59
-11 80 39 185 111 229 42 26 76 24 144 -10z"/>
<path d="M7470 5722 c-87 -13 -131 -152 -75 -235 51 -74 119 -87 170 -33 58
62 64 157 13 214 -45 51 -64 61 -108 54z m53 -90 c35 -36 34 -66 -2 -103 -36
-36 -45 -36 -76 -3 -30 33 -32 73 -4 108 26 33 49 33 82 -2z"/>
<path d="M7275 4650 c3 -5 8 -10 11 -10 2 0 4 5 4 10 0 6 -5 10 -11 10 -5 0
-7 -4 -4 -10z"/>
<path d="M7335 4500 c3 -5 8 -10 11 -10 2 0 4 5 4 10 0 6 -5 10 -11 10 -5 0
-7 -4 -4 -10z"/>
<path d="M4175 5350 c3 -5 13 -10 21 -10 8 0 14 5 14 10 0 6 -9 10 -21 10 -11
0 -17 -4 -14 -10z"/>
<path d="M5950 5345 c-17 -20 9 -21 36 0 19 14 19 14 -2 15 -12 0 -27 -7 -34
-15z"/>
<path d="M6176 5164 c-4 -9 -4 -19 -1 -22 3 -3 11 0 17 6 9 9 9 15 1 23 -7 7
-12 5 -17 -7z"/>
<path d="M3946 5161 c-6 -9 35 -24 43 -15 6 5 -18 24 -31 24 -4 0 -9 -4 -12
-9z"/>
<path d="M5760 4320 c0 -5 9 -10 21 -10 11 0 17 5 14 10 -3 6 -13 10 -21 10
-8 0 -14 -4 -14 -10z"/>
<path d="M3446 4264 c-9 -24 -2 -26 12 -4 7 11 8 20 3 20 -5 0 -12 -7 -15 -16z"/>
<path d="M3432 4030 c0 -14 2 -19 5 -12 2 6 2 18 0 25 -3 6 -5 1 -5 -13z"/>
<path d="M6410 3977 c-54 -10 -59 -12 -31 -15 44 -4 101 6 101 18 0 6 -1 9 -2
9 -2 -1 -32 -6 -68 -12z"/>
<path d="M1120 4070 c0 -5 7 -10 15 -10 8 0 15 5 15 10 0 6 -7 10 -15 10 -8 0
-15 -4 -15 -10z"/>
<path d="M4070 3920 c8 -5 22 -9 30 -9 10 0 8 3 -5 9 -27 12 -43 12 -25 0z"/>
<path d="M4127 3899 c7 -7 15 -10 18 -7 3 3 -2 9 -12 12 -14 6 -15 5 -6 -5z"/>
<path d="M2716 3953 c-12 -12 -6 -20 35 -46 50 -33 72 -35 39 -5 -22 20 -22
23 -7 26 10 2 29 -4 43 -13 14 -9 28 -14 31 -11 9 8 -23 35 -48 40 -59 12 -87
15 -93 9z"/>
<path d="M2460 3943 c0 -2 7 -11 15 -19 15 -15 40 -10 30 5 -5 10 -45 22 -45
14z"/>
<path d="M2536 3925 c4 -10 13 -13 25 -10 11 4 31 -2 49 -15 32 -23 45 -21 53
9 5 21 -24 31 -94 31 -30 0 -37 -3 -33 -15z"/>
<path d="M2695 3900 c3 -5 11 -10 16 -10 6 0 7 5 4 10 -3 6 -11 10 -16 10 -6
0 -7 -4 -4 -10z"/>
<path d="M2634 3649 c-8 -13 -5 -15 34 -22 40 -8 41 -3 2 16 -19 10 -32 12
-36 6z"/>
<path d="M9742 2800 c0 -14 2 -19 5 -12 2 6 2 18 0 25 -3 6 -5 1 -5 -13z"/>
<path d="M9164 2681 c-2 -2 -4 -45 -4 -94 l0 -89 31 6 c17 3 128 6 245 6 l214
0 0 91 0 90 -241 -3 c-132 -2 -243 -5 -245 -7z"/>
<path d="M9373 2453 l-203 -3 0 -53 c0 -28 -3 -69 -6 -89 l-7 -38 247 0 246 0
0 95 0 95 -37 -2 c-21 -2 -129 -4 -240 -5z"/>
<path d="M9162 2138 l3 -83 47 -8 c26 -4 134 -6 240 -5 l193 3 3 81 3 81 -167
6 c-92 4 -203 7 -246 7 l-79 0 3 -82z"/>
<path d="M9348 1623 c-41 -25 -67 -82 -74 -159 -5 -59 -3 -77 16 -122 29 -66
70 -102 117 -102 57 0 97 26 128 82 25 46 27 57 21 120 -7 78 -36 149 -74 178
-31 25 -96 26 -134 3z"/>
<path d="M7745 3670 c3 -5 8 -10 11 -10 2 0 4 5 4 10 0 6 -5 10 -11 10 -5 0
-7 -4 -4 -10z"/>
<path d="M78 613 c7 -3 16 -2 19 1 4 3 -2 6 -13 5 -11 0 -14 -3 -6 -6z"/>
</g>
</svg>
